<?xml version="1.0" encoding="utf-8"?>
<!-- Generator: Adobe Illustrator 27.9.0, SVG Export Plug-In . SVG Version: 6.00 Build 0)  -->
<svg version="1.1" id="Слой_1" xmlns="http://www.w3.org/2000/svg" xmlns:xlink="http://www.w3.org/1999/xlink" x="0px" y="0px"
	 viewBox="0 0 13 12" style="enable-background:new 0 0 13 12;" xml:space="preserve">
<style type="text/css">
	.st0{fill:#FFFFFF;}
</style>
<path class="st0" d="M6.36,11.71c-0.15,0-0.3-0.06-0.41-0.17c-0.21-0.22-0.21-0.58,0.02-0.8L10.94,6L5.97,1.26
	C5.74,1.05,5.74,0.69,5.95,0.47c0.21-0.23,0.57-0.23,0.79-0.02l5.4,5.15c0.11,0.1,0.17,0.25,0.17,0.4s-0.06,0.3-0.17,0.41l-5.4,5.15
	C6.63,11.66,6.5,11.71,6.36,11.71z"/>
<path class="st0" d="M11.75,6.56H1.25C0.94,6.56,0.69,6.31,0.69,6s0.25-0.56,0.56-0.56h10.5c0.31,0,0.56,0.25,0.56,0.56
	S12.06,6.56,11.75,6.56z"/>
</svg>
