<?xml version="1.0" encoding="utf-8"?>
<!-- Generator: Adobe Illustrator 27.9.0, SVG Export Plug-In . SVG Version: 6.00 Build 0)  -->
<svg version="1.1" id="Слой_1" xmlns="http://www.w3.org/2000/svg" xmlns:xlink="http://www.w3.org/1999/xlink" x="0px" y="0px"
	 viewBox="0 0 13 12" style="enable-background:new 0 0 13 12;" xml:space="preserve">
<style type="text/css">
	.st0{fill:#FFFFFF;}
</style>
<path class="st0" d="M6.64,0.29c0.15,0,0.3,0.06,0.41,0.17c0.21,0.22,0.21,0.58-0.02,0.8L2.06,6l4.97,4.74
	c0.23,0.21,0.23,0.57,0.02,0.79c-0.21,0.23-0.57,0.23-0.79,0.02l-5.4-5.15C0.75,6.3,0.69,6.15,0.69,6s0.06-0.3,0.17-0.41l5.4-5.15
	C6.37,0.34,6.5,0.29,6.64,0.29z"/>
<path class="st0" d="M1.25,5.44h10.5c0.31,0,0.56,0.25,0.56,0.56s-0.25,0.56-0.56,0.56H1.25C0.94,6.56,0.69,6.31,0.69,6
	S0.94,5.44,1.25,5.44z"/>
</svg>
