<?xml version="1.0" encoding="utf-8"?>
<!-- Generator: Adobe Illustrator 27.9.0, SVG Export Plug-In . SVG Version: 6.00 Build 0)  -->
<svg version="1.1" id="Слой_1" xmlns="http://www.w3.org/2000/svg" xmlns:xlink="http://www.w3.org/1999/xlink" x="0px" y="0px"
	 viewBox="0 0 28 36" style="enable-background:new 0 0 28 36;" xml:space="preserve">
<style type="text/css">
	.st0{fill:#FFFFFF;}
</style>
<path class="st0" d="M20.2,16.9l-4.4-2.4l1.4-2.7l0.6,0.3l5.2-11c0.2-0.4,0.6-0.8,1.1-1c0.6-0.2,1.3-0.2,1.9,0.1l0.1,0
	c0.5,0.3,1,0.7,1.2,1.3c0.2,0.6,0.2,1.2,0,1.7l-6.2,10.5l0.6,0.3L20.2,16.9z M17.5,14l2.2,1.2l0.3-0.5l-0.6-0.3l6.9-11.6
	c0.1-0.2,0.1-0.4,0-0.6c-0.1-0.3-0.3-0.5-0.6-0.7c-0.4-0.2-0.7-0.2-1-0.1c-0.1,0-0.3,0.1-0.4,0.3l-5.7,12.2l-0.7-0.4L17.5,14z"/>
<rect x="18.6" y="10.8" transform="matrix(0.4656 -0.885 0.885 0.4656 -1.5693 24.1989)" class="st0" width="1.3" height="5.2"/>
<rect x="23.7" y="1.5" transform="matrix(0.4695 -0.8829 0.8829 0.4695 9.4161 23.5251)" class="st0" width="1.3" height="4.9"/>
<path class="st0" d="M18.5,35.6c-2.5,0-5.7-1-9.5-3c-4.7-2.5-7.5-4.9-8.5-7.4l-0.3-0.7L1,24.3c2.4-0.6,4.3-1.5,5.6-2.7
	c1-0.8,1.8-2.2,2.7-3.5c1-1.6,1.9-3.1,3.1-3.8c1.5-0.9,3.6-0.7,6.1,0.6l0.5,0.3l0,0c2.1,1.3,3.3,2.8,3.3,4.4c0.1,1.4-0.7,3-1.4,4.7
	c-0.6,1.4-1.3,2.9-1.4,4.2c-0.2,1.8,0.1,3.9,0.9,6.2l0.2,0.7l-0.7,0.1C19.5,35.6,19,35.6,18.5,35.6z M2,25.4c1.1,2,3.7,4,7.6,6.1
	c3.8,2,6.9,3,9.3,2.9c-0.7-2.2-0.9-4.2-0.7-6c0.2-1.4,0.9-3,1.5-4.5c0.7-1.6,1.3-3.1,1.3-4.1c-0.1-1.3-1.1-2.6-3.2-3.7l-0.3-0.2
	c-1.9-1-3.5-1.1-4.5-0.5c-0.9,0.6-1.8,1.9-2.7,3.4c-0.9,1.4-1.8,2.8-2.9,3.8C6.1,23.8,4.3,24.7,2,25.4z"/>
<path class="st0" d="M9.7,35.2c-0.6,0-1.2-0.1-1.8-0.5c-1.7-0.9-2.4-2.8-1.6-4.3L7.4,31c-0.5,0.9,0,2.1,1.1,2.6
	c1.1,0.6,2.3,0.3,2.8-0.6l1.1,0.6C11.9,34.7,10.8,35.2,9.7,35.2z"/>
</svg>
