<svg width="28" height="29" viewBox="0 0 28 29" fill="none" xmlns="http://www.w3.org/2000/svg">
<path fill-rule="evenodd" clip-rule="evenodd" d="M14 0L28 6.78508V22.2149L14 29L0 22.2149V6.78508L14 0ZM2.54545 9.56991V20.6636L12.7273 25.5982V14.5045L2.54545 9.56991ZM15.2727 14.5045V25.5982L25.4545 20.6636V9.56991L21.6364 11.4204V16.3725L19.0909 17.6208V12.6541L15.2727 14.5045ZM23.8543 7.56066L20.5379 9.16789C20.4653 9.10909 20.3847 9.05735 20.2968 9.01425L10.7783 4.34623L14 2.78482L23.8543 7.56066ZM7.91555 5.73365L17.7114 10.5378L14 12.3365L4.14576 7.56066L7.91555 5.73365Z" fill="white"/>
</svg>
