<?xml version="1.0" encoding="utf-8"?>
<!-- Generator: Adobe Illustrator 27.9.0, SVG Export Plug-In . SVG Version: 6.00 Build 0)  -->
<svg version="1.1" id="Слой_1" xmlns="http://www.w3.org/2000/svg" xmlns:xlink="http://www.w3.org/1999/xlink" x="0px" y="0px"
	 viewBox="0 0 19 32" style="enable-background:new 0 0 19 32;" xml:space="preserve">
<style type="text/css">
	.st0{fill:#FFFFFF;}
</style>
<path class="st0" d="M19.1,32.1H-0.1v-4.6h19.3V32.1z M1.2,30.8h16.6v-1.9H1.2V30.8z"/>
<path class="st0" d="M16.6,28.3H2.4c-1.1,0-2-0.9-2-2c0-1.1,0.9-2,2-2h14.1c1.1,0,2,0.9,2,2C18.6,27.4,17.7,28.3,16.6,28.3z
	 M2.4,25.6c-0.4,0-0.7,0.3-0.7,0.7S2.1,27,2.4,27h14.1c0.4,0,0.7-0.3,0.7-0.7s-0.3-0.7-0.7-0.7H2.4z"/>
<path class="st0" d="M12.8,13.1H6.2c-1.1,0-2-0.9-2-2s0.9-2,2-2h6.5c1.1,0,2,0.9,2,2S13.9,13.1,12.8,13.1z M6.2,10.4
	c-0.4,0-0.7,0.3-0.7,0.7s0.3,0.7,0.7,0.7h6.5c0.4,0,0.7-0.3,0.7-0.7s-0.3-0.7-0.7-0.7H6.2z"/>
<rect x="-1.9" y="18" transform="matrix(0.2214 -0.9752 0.9752 0.2214 -14.4439 19.3342)" class="st0" width="13.6" height="1.3"/>
<rect x="13.4" y="11.9" transform="matrix(0.9727 -0.2319 0.2319 0.9727 -3.8916 3.7758)" class="st0" width="1.3" height="13.1"/>
<polygon class="st0" points="5.7,9.9 2.9,5.8 2.9,0.4 6.4,0.4 6.4,2.3 7.6,2.3 7.6,0.4 11.5,0.4 11.5,2.1 12.6,2.1 12.6,0.2 
	15.9,0.2 15.9,5.6 13.4,9.9 12.3,9.2 14.5,5.2 14.5,1.6 14,1.6 14,3.5 10.2,3.5 10.2,1.8 8.9,1.8 8.9,3.7 5.1,3.7 5.1,1.8 4.2,1.8 
	4.2,5.3 6.8,9.2 "/>
<rect x="3.4" y="5" class="st0" width="12.2" height="1.3"/>
</svg>
