<?xml version="1.0" encoding="utf-8"?>
<!-- Generator: Adobe Illustrator 27.9.0, SVG Export Plug-In . SVG Version: 6.00 Build 0)  -->
<svg version="1.1" id="Слой_1" xmlns="http://www.w3.org/2000/svg" xmlns:xlink="http://www.w3.org/1999/xlink" x="0px" y="0px"
	 viewBox="0 0 32 22" style="enable-background:new 0 0 32 22;" xml:space="preserve">
<style type="text/css">
	.st0{fill:#FFFFFF;}
</style>
<path class="st0" d="M25.3,22.2H6.7V19L2.3,4.9C0.9,5-0.2,3.7-0.2,2.3c0-1.4,1.1-2.6,2.5-2.6c1.4,0,2.5,1.1,2.5,2.6
	c0,0.5-0.2,1-0.4,1.4l6.2,6.4l3.9-6.6l1.3,0.8l-4.9,8.3L4.2,5.8l4.3,13.9H8.3v1h15.4v-2.6H24l3.8-12.2l-6.3,6.7l-5.2-8.2l1.3-0.8
	l4.2,6.6l6-6.4c-0.3-0.4-0.4-0.9-0.4-1.4c0-1.4,1.1-2.6,2.5-2.6s2.5,1.1,2.5,2.6c0,1.4-1.2,2.6-2.6,2.6l-4.4,14.3V22.2z M29.3,3.2
	l0.1,0c0.6,0.2,1.3-0.3,1.3-1c0-0.6-0.4-1-1-1s-1,0.5-1,1c0,0.3,0.2,0.6,0.4,0.8L29.3,3.2z M2.3,1.3c-0.5,0-1,0.5-1,1
	c0,0.7,0.7,1.2,1.3,1l0.3-0.1C3.1,3,3.2,2.6,3.2,2.3C3.2,1.8,2.8,1.3,2.3,1.3z"/>
<path class="st0" d="M16,4.9c-1.4,0-2.5-1.1-2.5-2.6c0-1.4,1.1-2.6,2.5-2.6s2.5,1.1,2.5,2.6C18.5,3.7,17.4,4.9,16,4.9z M16,1.3
	c-0.5,0-1,0.5-1,1s0.4,1,1,1s1-0.5,1-1S16.5,1.3,16,1.3z"/>
<rect x="7.4" y="18.8" class="st0" width="17.8" height="1.5"/>
</svg>
