<svg width="26" height="26" viewBox="0 0 26 26" fill="none" xmlns="http://www.w3.org/2000/svg">
<path fill-rule="evenodd" clip-rule="evenodd" d="M26.0005 22.4545C26.0005 23.1069 25.4711 23.6364 24.8187 23.6364H23.6369C23.6369 24.8182 23.761 26 22.4551 26C21.1634 26 21.2733 24.8182 21.2733 23.6364C20.0915 23.6364 18.9096 23.7605 18.9096 22.4545C18.9096 21.1628 20.0915 21.2727 21.2733 21.2727C21.2733 20.0909 21.1492 18.9091 22.4551 18.9091C23.7598 18.9091 23.6369 20.0909 23.6369 21.2727C24.8187 21.2727 26.0005 21.1486 26.0005 22.4545ZM15.3642 7.09091H8.27327V5.90909C8.27327 3.95436 9.864 2.36364 11.8187 2.36364C13.7735 2.36364 15.3642 3.54545 15.3642 5.90909V7.09091ZM19.7298 10.4696L20.6682 17.0394C21.3654 16.6293 22.1502 16.4616 22.9916 16.5905L21.9244 9.12014C21.7578 7.95605 20.7603 7.09091 19.5844 7.09091H17.7278V5.90909C17.7278 2.36364 15.077 0 11.8187 0C8.56045 0 5.90963 2.65082 5.90963 5.90909V7.09091H4.41462C3.23752 7.09091 1.87964 7.95605 1.713 9.12014L0.0241656 20.9383C-0.179107 22.3624 0.925906 23.6364 2.36418 23.6364H16.546V21.2727H3.7268C3.00825 21.2727 2.45517 20.6356 2.55681 19.9241L3.90763 10.4696C3.99154 9.88696 4.49026 9.45455 5.07762 9.45455H5.90963V11.8182C5.90963 12.4705 6.43909 13 7.09145 13C7.74382 13 8.27327 12.4705 8.27327 11.8182V9.45455H15.3642V11.8182C15.3642 12.4705 15.8936 13 16.546 13C17.1984 13 17.7278 12.4705 17.7278 11.8182V9.45455H18.5598C19.1472 9.45455 19.6459 9.88696 19.7298 10.4696Z" fill="white"/>
</svg>
