<svg width="27" height="27" viewBox="0 0 27 27" fill="none" xmlns="http://www.w3.org/2000/svg">
<path d="M13.4062 0C18.6869 1.64511e-05 21.788 0.533785 23.9668 2.65039C26.19 4.91818 26.7031 7.99748 26.7031 13.2783V13.4268C26.7031 18.7092 26.19 21.8091 23.9668 24.0547C21.7865 26.1712 18.7079 26.705 13.4053 26.7051H13.2988C7.99739 26.7051 4.89605 26.1714 2.73633 24.0547C0.513026 21.7869 0 18.7077 0 13.4268V13.2783C0 7.99738 0.513026 4.89594 2.73633 2.65039C4.91667 0.533749 7.99694 1.87617e-05 13.2998 0H13.4062ZM13.1396 3.17773C13.0381 3.17773 12.9532 3.2598 12.9482 3.36133C12.81 7.01801 12.3464 9.24336 10.7891 10.8008C9.23323 12.3566 7.01272 12.8207 3.3623 12.959C3.26078 12.9623 3.17787 13.0463 3.17773 13.1494V13.5752C3.17773 13.6768 3.26069 13.7617 3.3623 13.7666C7.01272 13.9049 9.23482 14.3706 10.7891 15.9248C12.3431 17.479 12.8074 19.696 12.9473 23.3398C12.9505 23.4415 13.0345 23.5244 13.1377 23.5244H13.5654C13.667 23.5243 13.751 23.4414 13.7559 23.3398C13.8957 19.6959 14.36 17.479 15.9141 15.9248C17.4699 14.369 19.6904 13.9049 23.3408 13.7666C23.4424 13.7632 23.5244 13.6784 23.5244 13.5752V13.1494H23.5264C23.5262 13.0478 23.4434 12.9637 23.3418 12.959C19.6917 12.8207 17.4702 12.3549 15.916 10.8008C14.3586 9.24336 13.8941 7.01969 13.7559 3.36133C13.7525 3.25987 13.6685 3.17784 13.5654 3.17773H13.1396Z" fill="white"/>
</svg>
