<?xml version="1.0" encoding="utf-8"?>
<!-- Generator: Adobe Illustrator 27.9.0, SVG Export Plug-In . SVG Version: 6.00 Build 0)  -->
<svg version="1.1" id="Слой_1" xmlns="http://www.w3.org/2000/svg" xmlns:xlink="http://www.w3.org/1999/xlink" x="0px" y="0px"
	 viewBox="0 0 32 27" style="enable-background:new 0 0 32 27;" xml:space="preserve">
<style type="text/css">
	.st0{fill:#FFFFFF;}
</style>
<path class="st0" d="M12.5,27H7c-0.7,0-1.2-0.5-1.2-1.2v-1.6h1.4v1.4h5.1v-1.4h1.4v1.6C13.7,26.5,13.2,27,12.5,27z"/>
<path class="st0" d="M9.7,25.3c-5.4,0-6.7-3-6.9-5.5l0-3.9c0.1-0.5,0.3-1.6,2-1.6h10.2c1.2,0.2,1.8,0.9,1.8,2.1v3.4
	C16.5,22.3,15.1,25.3,9.7,25.3z M14.8,15.7l-10.1,0c-0.5,0-0.5,0.1-0.5,0.3l0,3.8c0.1,1.7,0.8,4.1,5.5,4.1c3.6,0,5.4-1.3,5.6-4.2
	l0-3.3C15.3,15.7,15,15.7,14.8,15.7z"/>
<path class="st0" d="M4.6,23.4c-1.7,0-4.8-1.6-4.8-4.7c0-1.2,0.5-3.4,3.8-3.5l0.1,1.4c-2.1,0.1-2.4,1.1-2.4,2.1
	C1.2,21,3.6,22,4.6,22V23.4z"/>
<path class="st0" d="M3.3,21.4c-2.3-1.2-2-2.8-1.9-3.2c0.3-0.8,1-1.2,2.2-1.4l0.2,1.4c-0.3,0-0.9,0.1-0.9,0.4
	c-0.2,0.5,0.3,1,1.2,1.5L3.3,21.4z"/>
<path class="st0" d="M19,27c-2.2,0-4.3-0.6-6.2-1.6l0.7-1.2c1.7,0.9,3.6,1.4,5.5,1.4c6.5,0,11.8-5.5,11.8-12.2S25.5,1.2,19,1.2
	c-6.5,0-11.8,5.5-11.8,12.2c0,0.5,0,0.9,0.1,1.4L5.9,15c-0.1-0.5-0.1-1-0.1-1.6C5.8,5.9,11.7-0.2,19-0.2c7.3,0,13.2,6.1,13.2,13.6
	C32.2,20.9,26.3,27,19,27z"/>
<path class="st0" d="M19,22.9c-1.3,0-2.6-0.3-3.8-0.9l0.6-1.3c1,0.5,2.1,0.7,3.2,0.7c4.2,0,7.5-3.5,7.5-7.8c0-4.3-3.4-7.8-7.5-7.8
	s-7.5,3.5-7.5,7.8c0,0.4,0,0.8,0.1,1.2l-1.4,0.2c-0.1-0.5-0.1-0.9-0.1-1.4c0-5.1,4-9.2,9-9.2c4.9,0,9,4.1,9,9.2
	C28,18.8,23.9,22.9,19,22.9z"/>
</svg>
