<svg width="25" height="23" viewBox="0 0 25 23" fill="none" xmlns="http://www.w3.org/2000/svg">
<path fill-rule="evenodd" clip-rule="evenodd" d="M15.4728 21.6728L14.3506 22.4331C13.8078 22.8009 13.1631 23 12.5 23C11.8404 23 11.1992 22.8031 10.6582 22.4391C9.68279 21.7865 7.14452 20.0112 4.82067 17.6826C3.65636 16.516 2.48438 15.15 1.59092 13.6581C0.705268 12.1794 0 10.4212 0 8.51842C0 1.01641 7.86167 -1.98602 12.5 1.35638C17.1383 -1.98602 25 1.01641 25 8.51842C25 10.4214 24.2948 12.1796 23.4091 13.6585C22.5156 15.1504 21.3436 16.5164 20.1792 17.6829C18.4986 19.3665 16.706 20.7607 15.4728 21.6503V21.6728ZM14.3277 3.28798C17.4096 1.46373 22.4138 3.20039 22.4138 8.51842C22.4138 13.6591 14.7167 19.1056 12.8866 20.3278V20.3298C12.7725 20.4071 12.6378 20.4484 12.5 20.4484C12.3622 20.4484 12.2275 20.4071 12.1134 20.3298C12.1124 20.3291 12.1114 20.3284 12.1104 20.3278C11.7242 20.0694 11.0788 19.6243 10.3004 19.0347C7.37966 16.8221 2.58621 12.5744 2.58621 8.51842C2.58621 3.20039 7.59041 1.46373 10.6723 3.28798C11.4337 3.73868 12.0777 4.40672 12.5 5.29182C12.9223 4.40672 13.5663 3.73868 14.3277 3.28798Z" fill="white"/>
</svg>
