<svg width="16" height="16" viewBox="0 0 16 16" fill="none" xmlns="http://www.w3.org/2000/svg">
<path d="M8.10694 15.4134H7.30694C7.28694 15.4094 7.26774 15.4038 7.24774 15.4022C6.87085 15.3812 6.49614 15.3312 6.12694 15.2526C5.13076 15.0442 4.18573 14.6406 3.34644 14.0649C2.50715 13.4893 1.79024 12.753 1.23712 11.8987C0.683992 11.0444 0.305621 10.089 0.123859 9.08761C-0.0579028 8.08624 -0.0394531 7.05878 0.178142 6.06458C0.486142 4.68058 1.11494 3.46218 2.09174 2.43418C3.53014 0.922175 5.30134 0.119775 7.38374 0.0093749C7.95174 -0.0210251 8.51734 0.0237749 9.07734 0.125375C10.0887 0.30328 11.0528 0.686639 11.9101 1.25177C13.6221 2.38618 14.7197 3.95657 15.2085 5.95018C15.3129 6.36462 15.374 6.78874 15.3909 7.21578C15.3917 7.23578 15.3981 7.25498 15.4021 7.27498V8.14297C15.3989 8.15578 15.3925 8.16858 15.3917 8.18138C15.3885 8.24218 15.3901 8.30378 15.3845 8.36458C15.2296 10.1764 14.4391 11.8751 13.1527 13.1603C11.8663 14.4455 10.1669 15.2345 8.35494 15.3878L8.10694 15.4134ZM6.53574 12.3446C6.64534 12.3574 8.82854 12.3526 8.87894 12.3398L8.88134 12.3078L8.88054 6.38138C8.88054 6.37658 8.87894 6.37258 8.87814 6.36778L8.87414 6.36298L8.87014 6.35898H6.53654L6.53574 12.3446ZM8.87654 5.47178C8.89174 5.30457 8.88454 3.35498 8.86934 3.30618C8.71894 3.29178 6.58374 3.29898 6.53574 3.31338C6.52214 3.47418 6.52854 5.42217 6.54374 5.47178H8.87654Z" fill="white"/>
</svg>
