<svg width="31" height="33" viewBox="0 0 31 33" fill="none" xmlns="http://www.w3.org/2000/svg">
<path d="M26.6408 29.4168C26.2643 29.4168 25.915 29.4004 25.5687 29.4224C25.3179 29.4388 25.2482 29.3424 25.2513 29.1016C25.2612 28.4082 25.2538 27.7149 25.2538 27.0215C25.2538 26.2128 25.215 25.4015 25.2655 24.596C25.3148 23.808 24.9894 23.2294 24.3899 22.8411C23.3356 22.1578 22.2653 21.4928 21.1574 20.9066C19.3205 19.9353 17.4492 19.0301 15.5883 18.106C15.4983 18.0613 15.3498 18.06 15.2605 18.1048C13.4446 19.0068 11.6213 19.8937 9.8257 20.8366C8.72396 21.4153 7.65672 22.0645 6.5975 22.7226C6.29248 22.9123 6.02567 23.2124 5.82788 23.52C5.68184 23.7469 5.62022 24.0677 5.61714 24.3482C5.59927 25.9449 5.60975 27.5415 5.61098 29.1382C5.61098 29.2107 5.61098 29.2831 5.61098 29.389H4.21778V25.7961C2.09194 25.1885 0.88729 23.7248 0.277882 21.6744C-0.138661 20.2725 -0.0961439 18.892 0.470132 17.5337C0.510184 17.4379 0.482456 17.2904 0.442403 17.1845C-0.425804 14.8774 -0.060405 11.7756 1.93296 10.0037C2.45302 9.54164 2.6995 9.03926 2.88435 8.3856C3.37915 6.63516 4.52772 5.39024 6.05895 4.51029C7.03499 3.94929 8.08312 3.6045 9.21198 3.53516C9.32844 3.52823 9.47324 3.42233 9.5441 3.31896C10.8418 1.42921 12.5911 0.281367 14.8445 0.0393182C16.4442 -0.132764 17.9421 0.263088 19.2965 1.16636C20.1665 1.7469 20.8832 2.48628 21.455 3.37695C21.5296 3.49293 21.7058 3.59063 21.8444 3.60513C23.6203 3.79486 25.2131 4.4107 26.509 5.70289C27.4573 6.64839 28.0229 7.80191 28.2022 9.14768C28.2287 9.34623 28.3107 9.4805 28.4814 9.59648C30.0576 10.6725 30.8371 12.1928 30.8648 14.1248C30.8802 15.192 30.7317 16.2314 30.4187 17.2513C30.3657 17.4234 30.4341 17.6578 30.5019 17.8425C31.0657 19.3774 30.9572 20.8908 30.357 22.3791C29.8807 23.5603 29.1518 24.5487 28.0587 25.2036C27.7093 25.4129 27.3168 25.5579 26.931 25.6909C26.7369 25.7577 26.6513 25.815 26.6544 26.0451C26.6673 27.116 26.6581 28.1876 26.6562 29.2586C26.6562 29.2989 26.6482 29.3386 26.6408 29.4155V29.4168ZM26.6223 24.3451C26.8855 24.2266 27.0568 24.1642 27.2151 24.0759C29.2467 22.9451 30.1192 19.6756 28.9688 17.7209C28.9053 17.6125 28.8628 17.4253 28.9109 17.3244C29.4365 16.2226 29.5252 15.0483 29.458 13.8563C29.3693 12.2805 28.6311 11.1181 27.2336 10.4254C27.0105 10.3151 26.9446 10.1884 26.952 9.94757C26.9779 9.12814 26.7628 8.36543 26.3198 7.68719C25.1731 5.93485 23.4866 5.11605 21.4963 4.95972C20.9263 4.91497 20.6552 4.7328 20.3804 4.25186C18.8984 1.66243 15.873 0.839215 13.3669 1.84019C12.0409 2.36967 11.0753 3.31581 10.3907 4.57774C10.3063 4.7328 10.2385 4.87148 10.0087 4.87022C8.10962 4.85761 6.51 5.59132 5.20676 6.9831C4.43468 7.80758 3.93372 8.78082 3.93002 9.96081C3.92941 10.1776 3.84499 10.2968 3.6589 10.4008C2.53066 11.033 1.8393 12.0346 1.55154 13.2846C1.2342 14.6638 1.33464 16.031 1.965 17.3276C2.00629 17.4126 2.01368 17.5728 1.96315 17.6377C1.47883 18.2598 1.3938 18.9879 1.39256 19.7436C1.39072 21.0768 1.81342 22.253 2.66376 23.2596C3.06798 23.7381 3.55292 24.11 4.20669 24.3029C4.20669 24.1516 4.20915 24.0394 4.20669 23.9272C4.15062 21.8036 4.34718 19.7247 5.12666 17.7253C5.9659 15.5714 7.23402 13.7466 9.02404 12.3284C11.0328 10.7374 13.3121 9.97027 15.8693 10.0749C18.0296 10.1632 19.9589 10.8912 21.6824 12.1985C23.2407 13.3804 24.4287 14.8863 25.284 16.6657C26.0561 18.2731 26.5385 19.9642 26.6156 21.7588C26.6513 22.5852 26.6217 23.4141 26.6217 24.3451H26.6223ZM5.63748 21.5792C5.72744 21.5622 5.76318 21.5653 5.78474 21.5495C7.12495 20.5681 8.61181 19.8602 10.0845 19.1234C11.7587 18.2857 13.4304 17.4416 15.1003 16.5945C15.3252 16.4804 15.5057 16.4533 15.7528 16.5844C16.8712 17.1775 18.008 17.7341 19.1332 18.314C20.7433 19.1436 22.3534 19.9731 23.953 20.8221C24.3745 21.0459 24.759 21.3415 25.1891 21.6227C25.1891 21.4802 25.2008 21.3674 25.1872 21.2577C24.8939 18.8567 24.0251 16.7079 22.4618 14.8781C20.7476 12.8711 18.6119 11.6659 15.9888 11.4976C13.3491 11.328 11.0722 12.2552 9.15344 14.0876C7.41518 15.7479 6.35225 17.8091 5.85807 20.1805C5.76379 20.633 5.71265 21.0957 5.63748 21.5798V21.5792Z" fill="white"/>
<path d="M27.3476 31.5948C27.3352 32.4514 26.7431 32.9991 25.8342 32.996C25.1626 32.9935 24.5575 32.3051 24.5667 31.5538C24.576 30.7715 25.2082 30.1513 25.9833 30.1633C26.7684 30.1752 27.3593 30.7955 27.3476 31.5954V31.5948Z" fill="white"/>
<path d="M4.88324 32.9851C4.22762 33.0632 3.48203 32.3913 3.52208 31.5019C3.55597 30.7423 4.19311 30.1347 4.94055 30.1631C5.75761 30.194 6.3319 30.8337 6.30479 31.6942C6.28199 32.4247 5.5173 33.1111 4.88386 32.9851H4.88324Z" fill="white"/>
<path d="M4.89063 15.4476C4.90727 15.9998 4.44205 16.482 3.8807 16.4927C3.31936 16.504 2.83442 16.0527 2.80854 15.4949C2.78019 14.8948 3.24233 14.3817 3.81908 14.3722C4.43959 14.3622 4.87153 14.7952 4.89125 15.447L4.89063 15.4476Z" fill="white"/>
<path d="M28.0439 15.4045C28.0439 16.0374 27.6212 16.4836 27.0161 16.4899C26.4405 16.4962 25.9661 16.0172 25.9759 15.4404C25.9864 14.8214 26.4301 14.3714 27.0321 14.3701C27.5934 14.3682 28.0445 14.8296 28.0445 15.4045H28.0439Z" fill="white"/>
<path d="M23.6837 8.61865C23.2284 8.30979 23.0928 8.04063 23.1945 7.6826C23.274 7.40399 23.5457 7.19661 23.8384 7.19157C24.1828 7.18527 24.4108 7.3605 24.515 7.71097C24.6228 8.07404 24.5094 8.29592 24.054 8.61298C24.4909 8.91806 24.6296 9.18343 24.5224 9.51184C24.4145 9.84213 24.1613 10.0438 23.8673 10.0338C23.521 10.0218 23.2647 9.82133 23.192 9.50554C23.1051 9.12733 23.2345 8.88907 23.6837 8.61928V8.61865Z" fill="white"/>
<path d="M10.0216 8.61012C10.4899 8.93411 10.5928 9.15977 10.4634 9.57453C10.3741 9.85945 10.0931 10.0467 9.77207 10.034C9.48369 10.0233 9.22613 9.79326 9.15342 9.4825C9.07331 9.13771 9.21997 8.87171 9.56442 8.67063C9.41407 8.42039 9.21257 8.18527 9.13432 7.9136C9.09303 7.77114 9.23044 7.53035 9.35183 7.39294C9.62912 7.0784 10.127 7.13072 10.3759 7.46669C10.6464 7.83102 10.5115 8.26533 10.0216 8.60949V8.61012Z" fill="white"/>
<path d="M14.2228 5.73492C14.6677 6.04064 14.7971 6.28899 14.6985 6.64639C14.6147 6.94958 14.3528 7.15318 14.0379 7.15948C13.7372 7.16579 13.4698 6.95967 13.3761 6.64954C13.264 6.27953 13.3724 6.06585 13.7231 5.82128C13.6337 5.68135 13.5 5.53133 13.4359 5.35483C13.3755 5.18716 13.3466 4.98419 13.3786 4.81085C13.4334 4.51648 13.7551 4.29839 14.0441 4.3028C14.3177 4.30721 14.6313 4.55746 14.7046 4.82976C14.7983 5.17897 14.656 5.44623 14.2228 5.73429V5.73492Z" fill="white"/>
<path d="M6.82238 8.61848C6.36209 8.27306 6.2407 8.01588 6.35963 7.66982C6.45945 7.37924 6.72441 7.18573 7.01525 7.18951C7.32334 7.19329 7.57845 7.37861 7.67211 7.66604C7.78302 8.00831 7.65978 8.27432 7.24262 8.6002C7.37079 8.73761 7.54702 8.85549 7.6148 9.02C7.68258 9.18452 7.6869 9.40829 7.63945 9.58352C7.55626 9.88798 7.26727 10.0569 6.97766 10.038C6.66711 10.0172 6.41817 9.80225 6.34238 9.48897C6.26104 9.153 6.4003 8.89646 6.823 8.61911L6.82238 8.61848Z" fill="white"/>
<path d="M21.2177 8.60016C21.6799 8.90902 21.8241 9.18007 21.7242 9.52549C21.638 9.8249 21.3379 10.043 21.0249 10.0342C20.7531 10.0266 20.4629 9.79465 20.3902 9.52675C20.2916 9.16179 20.4315 8.89326 20.8622 8.62033C20.3822 8.24339 20.2707 8.0026 20.4093 7.64205C20.5245 7.34201 20.7963 7.16677 21.1105 7.18947C21.3983 7.21027 21.6706 7.44349 21.7279 7.71832C21.8062 8.09211 21.6583 8.35748 21.2177 8.60016Z" fill="white"/>
<path d="M16.6524 5.74123C16.21 5.45317 16.0744 5.18023 16.1779 4.81148C16.2525 4.54485 16.5692 4.30658 16.8502 4.30469C17.1275 4.30343 17.4134 4.52909 17.4861 4.80707C17.5927 5.21238 17.4664 5.46388 16.9889 5.7406C17.4153 5.92151 17.618 6.231 17.4892 6.67854C17.3955 7.00442 17.0924 7.19542 16.78 7.16138C16.4786 7.12797 16.2654 6.96282 16.1804 6.65837C16.08 6.29845 16.2223 6.01858 16.6518 5.74249L16.6524 5.74123Z" fill="white"/>
<path d="M14.7589 7.15087C14.7626 6.79536 15.0651 6.46128 15.3831 6.46191C15.8187 6.46318 16.133 6.77141 16.1268 7.19247C16.1206 7.58139 15.823 7.8745 15.4354 7.87387C15.03 7.87324 14.7546 7.57887 14.7589 7.1515V7.15087Z" fill="white"/>
<path d="M15.4213 4.99643C15.0442 5.00148 14.7558 4.70081 14.7564 4.30243C14.7564 3.89461 15.0269 3.61222 15.4213 3.60843C15.8261 3.60465 16.1287 3.9028 16.1274 4.30369C16.1262 4.70585 15.8353 4.99139 15.4219 4.99643H15.4213Z" fill="white"/>
<path d="M7.74235 7.18013C7.74605 6.74016 8.02272 6.47794 8.49287 6.46785C8.80342 6.46155 9.10905 6.82336 9.10536 7.19463C9.10166 7.57157 8.78864 7.87792 8.41091 7.87287C8.01532 7.86846 7.73865 7.58166 7.74235 7.1795V7.18013Z" fill="white"/>
<path d="M23.1483 7.20974C23.1464 7.57912 22.8285 7.87412 22.4384 7.86971C22.0601 7.86529 21.7809 7.58416 21.7785 7.2047C21.7754 6.78175 22.0884 6.4483 22.4772 6.46027C22.8482 6.47162 23.1507 6.80948 23.1489 7.21037L23.1483 7.20974Z" fill="white"/>
<path d="M22.4267 10.7281C22.0367 10.73 21.7711 10.4426 21.7754 10.0221C21.7791 9.61747 22.0588 9.34453 22.4655 9.34768C22.8358 9.35083 23.1427 9.66663 23.1464 10.0505C23.1507 10.4457 22.8531 10.7262 22.4261 10.7281H22.4267Z" fill="white"/>
<path d="M9.10351 10.066C9.09858 10.4373 8.79295 10.7499 8.43864 10.748C8.03504 10.7455 7.74112 10.4442 7.74358 10.0345C7.74604 9.61154 8.02826 9.3386 8.45035 9.34995C8.82992 9.36067 9.10905 9.66638 9.10351 10.066Z" fill="white"/>
<path d="M16.8354 15.7782C16.4522 15.775 16.1441 15.4529 16.1404 15.0508C16.1373 14.7028 16.4848 14.3675 16.849 14.3662C17.2175 14.365 17.5366 14.6889 17.5391 15.0646C17.5416 15.4605 17.2255 15.7807 16.836 15.7775L16.8354 15.7782Z" fill="white"/>
<path d="M9.81643 17.9266C9.42084 17.9234 9.11583 17.6076 9.11952 17.2061C9.12261 16.8411 9.45288 16.5209 9.82383 16.5235C10.1991 16.526 10.5189 16.8437 10.5183 17.2124C10.5177 17.6051 10.1991 17.9297 9.81643 17.9266Z" fill="white"/>
<path d="M10.5386 15.7734C10.1603 15.7797 9.838 15.4746 9.82999 15.1027C9.82136 14.693 10.1122 14.3785 10.5066 14.3722C10.9052 14.3653 11.2164 14.6716 11.2146 15.0693C11.2127 15.4608 10.9182 15.7671 10.5386 15.7734Z" fill="white"/>
<path d="M20.3569 14.3711C20.7365 14.3692 21.0335 14.6699 21.0409 15.0638C21.0483 15.4345 20.7334 15.7711 20.3699 15.7805C19.9866 15.7913 19.6539 15.4666 19.652 15.0802C19.6502 14.6869 19.962 14.373 20.3569 14.3711Z" fill="white"/>
<path d="M15.4361 14.3299C15.0442 14.3299 14.7552 14.0425 14.7527 13.6492C14.7502 13.2501 15.0392 12.9369 15.4096 12.9375C15.8212 12.9375 16.12 13.2224 16.1268 13.6195C16.1342 14.0236 15.8366 14.3293 15.4361 14.3299Z" fill="white"/>
<path d="M14.6911 15.0755C14.6985 15.4966 14.436 15.779 14.0385 15.779C13.6584 15.779 13.3527 15.4733 13.3478 15.0875C13.3429 14.6841 13.643 14.3752 14.0447 14.3702C14.4403 14.3658 14.6837 14.6305 14.6911 15.0755Z" fill="white"/>
<path d="M20.3693 17.2371C20.3643 16.8388 20.6453 16.5312 21.023 16.5217C21.4217 16.5122 21.7353 16.8135 21.7372 17.2088C21.7397 17.5996 21.4439 17.9236 21.0803 17.9292C20.6743 17.9362 20.3742 17.6437 20.3693 17.2365V17.2371Z" fill="white"/>
</svg>
