<svg width="30" height="32" viewBox="0 0 30 32" fill="none" xmlns="http://www.w3.org/2000/svg">
<path d="M28.9083 0.419859C28.8647 0.228234 28.7204 0.0754834 28.5316 0.0211083C28.3431 -0.0332668 28.1395 0.0191708 28.0004 0.158109L27.9111 0.247484C25.6355 2.52305 23.0484 4.45668 20.2215 5.99462L19.8401 6.20206C19.7946 6.22681 19.753 6.25787 19.7164 6.2945L11.5154 14.4954L9.57039 12.5504C9.35964 12.3397 9.01802 12.3396 8.80714 12.5504C8.59639 12.7611 8.59639 13.1028 8.80714 13.3135L10.7521 15.2585L0.663064 25.3478C0.2355 25.7754 0 26.3438 0 26.9485C0 27.5532 0.235438 28.1217 0.663001 28.5492L3.45069 31.3369C3.87826 31.7645 4.44676 32 5.05138 32C5.65607 32 6.22464 31.7645 6.65214 31.3369L16.7413 21.2477L19.0801 23.5864C19.1855 23.6917 19.3237 23.7445 19.4617 23.7445C19.5998 23.7445 19.738 23.6918 19.8434 23.5864C20.0541 23.3757 20.0541 23.0339 19.8434 22.8233L17.5046 20.4845L25.3964 12.5927C26.9659 11.0231 28.1181 9.06588 28.7283 6.93262C29.3338 4.81587 29.396 2.56374 28.9083 0.419859ZM13.0545 14.4826L13.8542 15.2823C13.9596 15.3876 14.0977 15.4403 14.2358 15.4403C14.3738 15.4403 14.512 15.3876 14.6174 15.2823C14.8282 15.0715 14.8282 14.7298 14.6174 14.5191L13.8178 13.7195L14.6272 12.9101L15.4268 13.7098C15.5322 13.8151 15.6703 13.8678 15.8084 13.8678C15.9465 13.8678 16.0847 13.8151 16.19 13.7098C16.4008 13.499 16.4008 13.1573 16.19 12.9466L15.3904 12.147L16.1998 11.3376L16.9994 12.1373C17.1048 12.2426 17.243 12.2953 17.381 12.2953C17.5191 12.2953 17.6573 12.2426 17.7627 12.1373C17.9734 11.9265 17.9734 11.5848 17.7627 11.3741L16.963 10.5745L20.4245 7.113L20.7374 6.94281C22.7615 5.84162 24.666 4.5433 26.4273 3.06755C26.3121 6.0805 25.0655 8.96319 22.9152 11.1134L15.5242 18.5041L12.2786 15.2585L13.0545 14.4826ZM5.88882 30.5738C5.6652 30.7975 5.3677 30.9207 5.05132 30.9207C4.73501 30.9207 4.43757 30.7975 4.21382 30.5738L1.42613 27.7861C1.20244 27.5624 1.07925 27.2649 1.07925 26.9485C1.07925 26.6322 1.20244 26.3347 1.42613 26.111L1.63619 25.9009L6.09889 30.3636L5.88882 30.5738ZM14.9159 21.5468L13.4975 20.1284C13.2867 19.9176 12.9451 19.9176 12.7343 20.1284C12.5235 20.3391 12.5235 20.6808 12.7343 20.8915L14.1527 22.3099L13.3051 23.1575L10.9513 20.8038C10.7405 20.593 10.3989 20.593 10.1881 20.8038C9.97733 21.0145 9.97733 21.3562 10.1881 21.5669L12.5418 23.9207L11.6943 24.7682L8.89021 21.9642C8.67939 21.7535 8.33777 21.7535 8.12695 21.9642C7.9162 22.175 7.9162 22.5167 8.12695 22.7273L10.931 25.5314L10.0835 26.3789L7.27951 23.5749C7.0687 23.3642 6.72708 23.3642 6.51626 23.5749C6.30551 23.7857 6.30551 24.1274 6.51626 24.338L9.32033 27.1421L8.47277 27.9897L5.6687 25.1856C5.45789 24.9748 5.11626 24.9748 4.90545 25.1856C4.6947 25.3963 4.6947 25.738 4.90545 25.9487L7.70952 28.7528L6.86195 29.6004L2.39925 25.1377L11.5151 16.0216L15.9779 20.4844L14.9159 21.5468ZM27.6906 6.63575C27.1307 8.59325 26.0734 10.3892 24.6332 11.8294L16.7414 19.7214L16.2873 19.2673L23.6782 11.8764C26.2548 9.29988 27.6411 5.75837 27.5064 2.12405C27.6841 1.96217 27.8607 1.79905 28.0352 1.63336C28.2713 3.30043 28.1552 5.01162 27.6906 6.63575Z" fill="white"/>
</svg>
