<?xml version="1.0" encoding="utf-8"?>
<!-- Generator: Adobe Illustrator 27.9.0, SVG Export Plug-In . SVG Version: 6.00 Build 0)  -->
<svg version="1.1" id="Слой_1" xmlns="http://www.w3.org/2000/svg" xmlns:xlink="http://www.w3.org/1999/xlink" x="0px" y="0px"
	 viewBox="0 0 23 33" style="enable-background:new 0 0 23 33;" xml:space="preserve">
<style type="text/css">
	.st0{fill:#FFFFFF;}
</style>
<path class="st0" d="M17.3,33.1H5.7L5.6,33c-3.8-2.3-5.7-5.8-5.7-10.3c0-3.9,1.2-5.7,2.1-7.2c0.7-1.1,1.2-1.9,1.2-3.2l0-0.5
	C3.2,7.9,3.1,0,11.4-0.1l0.1,0c8.4,0.1,8.3,8,8.3,11.8l0,0.5c0,1.3,0.5,2.2,1.2,3.2c0.9,1.5,2.1,3.4,2.1,7.2c0,4.5-1.9,8-5.7,10.3
	L17.3,33.1z M6.1,31.8h10.8c3.3-2.1,4.9-5.1,4.9-9.1c0-3.5-1-5.1-1.9-6.6c-0.7-1.1-1.4-2.2-1.4-3.9l0-0.5c0-5.1-0.5-10.5-7-10.5
	l-0.1-0.6l0,0.6c-6.5,0.1-7,5.5-7,10.5l0,0.5c0,1.7-0.7,2.8-1.4,3.9c-0.9,1.4-1.9,3.1-1.9,6.6C1.1,26.7,2.8,29.7,6.1,31.8z"/>
<path class="st0" d="M11.5,14.7c-3.3,0-5.9-2.7-5.9-6c0-0.3,0-0.7,0.1-1l0.1-0.5l0.5,0c2.2,0,4.1-1.7,4.5-4l0.1-0.5l1.1,0l0.2,0.5
	c0.4,2.3,2.3,3.9,4.5,4l0.5,0l0.1,0.5c0.1,0.3,0.1,0.7,0.1,1C17.4,11.9,14.7,14.7,11.5,14.7z M6.9,8.3c0,0.1,0,0.2,0,0.3
	c0,2.6,2.1,4.8,4.6,4.8c2.6,0,4.6-2.1,4.6-4.8c0-0.1,0-0.2,0-0.3c-2-0.2-3.7-1.5-4.6-3.3C10.6,6.8,8.9,8.1,6.9,8.3z"/>
<path class="st0" d="M9.5,9.5c0.4,0,0.7-0.3,0.7-0.7S9.9,8.2,9.5,8.2S8.9,8.5,8.9,8.8S9.1,9.5,9.5,9.5z"/>
<path class="st0" d="M13.5,9.5c0.4,0,0.7-0.3,0.7-0.7s-0.3-0.7-0.7-0.7c-0.4,0-0.7,0.3-0.7,0.7S13.1,9.5,13.5,9.5z"/>
<path class="st0" d="M11.5,30c-3.7,0-6.8-3.1-6.8-6.9s3-6.9,6.8-6.9s6.8,3.1,6.8,6.9S15.2,30,11.5,30z M11.5,17.4
	c-3,0-5.5,2.5-5.5,5.7c0,3.1,2.5,5.7,5.5,5.7c3,0,5.5-2.5,5.5-5.7C17,20,14.5,17.4,11.5,17.4z"/>
</svg>
