<svg width="35" height="35" viewBox="0 0 35 35" fill="none" xmlns="http://www.w3.org/2000/svg">
<path d="M16.2517 34.9982C16.0939 34.9889 15.9361 34.9703 15.7691 34.9703C14.052 34.933 12.335 34.8119 10.6272 34.5976C8.59457 34.3461 6.57124 33.9921 4.61287 33.3865C3.4527 33.0325 2.32038 32.604 1.30871 31.9146C0.918892 31.6631 0.584763 31.3464 0.315604 30.9644C-0.111338 30.3309 -0.102057 29.6881 0.324885 29.0639C0.705421 28.5236 1.22518 28.151 1.79134 27.8342C2.91438 27.1914 4.13024 26.7815 5.36466 26.4462C6.91465 26.027 8.50176 25.7195 10.0982 25.5239C11.1655 25.3842 12.2421 25.3003 13.3095 25.1978C13.4209 25.1885 13.523 25.1978 13.6344 25.2071C13.2445 25.2444 12.8547 25.2724 12.4649 25.3283C11.3883 25.4866 10.3116 25.6357 9.24427 25.8313C8.10266 26.0363 6.9889 26.3623 5.91226 26.8002C5.32754 27.0424 4.75209 27.3219 4.2509 27.7318C4.08384 27.8715 3.92605 28.0299 3.78683 28.1976C3.33205 28.7845 3.35989 29.3993 3.83324 29.9583C4.21377 30.4054 4.6964 30.7036 5.20688 30.9644C6.3392 31.542 7.55506 31.8867 8.78948 32.1662C10.2002 32.4736 11.6296 32.6972 13.0682 32.8183C15.1472 33.0139 17.2355 33.0698 19.3238 32.986C21.9783 32.8835 24.6142 32.604 27.1851 31.9146C28.2896 31.6165 29.3755 31.2532 30.3408 30.629C30.6192 30.452 30.8791 30.2284 31.1019 29.9862C31.6587 29.39 31.6495 28.682 31.1019 28.0765C30.6471 27.5734 30.0809 27.2473 29.4776 26.9679C28.2525 26.3996 26.9624 26.0456 25.6351 25.7941C24.5585 25.5984 23.4726 25.4494 22.396 25.3003C22.0525 25.2537 21.7091 25.2351 21.375 25.1792C21.6349 25.1978 21.8948 25.2071 22.1546 25.2258C23.881 25.3562 25.6073 25.5798 27.3151 25.9058C29.0507 26.2412 30.7585 26.6698 32.3734 27.415C32.8468 27.6386 33.3015 27.8901 33.7378 28.1789C34.3411 28.5702 34.8237 29.0733 34.9908 29.8092V30.2378C34.9072 30.5638 34.7958 30.8806 34.5545 31.1228C34.2668 31.4209 33.9605 31.7004 33.6264 31.9426C32.6704 32.604 31.5938 33.0046 30.4986 33.3493C28.4845 33.9828 26.4333 34.3554 24.3543 34.6069C22.5723 34.8212 20.781 34.9516 18.9804 34.9796C18.8969 34.9796 18.8134 34.9982 18.7298 35.0075L16.2517 34.9982Z" fill="#6C6C6C"/>
<path d="M17.4118 28.5886C16.7807 27.4707 16.1589 26.3807 15.5556 25.2815C13.7828 22.0488 12.0101 18.8069 10.2374 15.5556C9.47628 14.1396 8.93796 12.6211 8.63168 11.0467C8.56671 10.7486 8.52958 10.4505 8.5203 10.1431C8.47389 8.61524 8.54814 7.10606 9.17928 5.69004C10.5344 2.65304 12.8268 0.752586 16.0846 0.137734C18.3121 -0.281483 20.3633 0.277473 22.2289 1.52581C24.1965 2.84867 25.5052 4.66528 26.0899 6.98495C26.2477 7.5998 26.3219 8.23329 26.3219 8.86677C26.3219 9.39778 26.3405 9.92879 26.2941 10.4598C26.2291 11.3262 25.96 12.1553 25.7001 12.9751C25.2546 14.3725 24.5863 15.6674 23.8809 16.9437C21.7555 20.7912 19.6301 24.6294 17.4861 28.4675C17.4768 28.4955 17.4582 28.5327 17.4118 28.5886ZM21.2636 9.10899C21.2729 6.96632 19.5651 5.21492 17.4582 5.20561C15.3514 5.19629 13.625 6.93837 13.6158 9.09036C13.6065 11.2423 15.3235 12.9844 17.4211 12.9844C19.5373 12.9937 21.2543 11.2703 21.2636 9.10899Z" fill="#6C6C6C"/>
</svg>
