<svg width="32" height="32" viewBox="0 0 32 32" fill="none" xmlns="http://www.w3.org/2000/svg">
<g clip-path="url(#clip0_1_2511)">
<g clip-path="url(#clip1_1_2511)">
<g clip-path="url(#clip2_1_2511)">
<path d="M16.0768 0.460557C18.7552 0.460557 21.4336 0.439757 24.112 0.470157C25.2416 0.482957 26.3744 0.591757 27.4352 1.03976C29.7984 2.03816 31.1552 3.83016 31.5232 6.35176C31.64 7.15336 31.6672 7.97416 31.6688 8.78696C31.6816 13.8766 31.6848 18.9662 31.6672 24.0558C31.664 25.1134 31.5648 26.1694 31.1904 27.1758C30.3168 29.5262 28.6336 30.9534 26.192 31.4414C25.352 31.6094 24.4784 31.659 23.6192 31.6622C18.4448 31.6814 13.2704 31.683 8.09438 31.6622C7.03998 31.6574 5.98078 31.5598 4.97438 31.1886C2.62238 30.3214 1.18718 28.6494 0.689584 26.2078C0.531184 25.4286 0.473584 24.6158 0.470384 23.8174C0.451184 18.5694 0.452784 13.3214 0.467184 8.07496C0.470384 7.00616 0.563184 5.93416 0.955184 4.91976C1.93598 2.38216 3.79838 0.951757 6.48158 0.607757C7.34718 0.497357 8.22718 0.473357 9.10078 0.466957C11.4256 0.449357 13.7504 0.460557 16.0768 0.460557ZM16.0576 21.5742C16.1536 21.771 16.208 21.875 16.2544 21.9822C16.8144 23.3038 17.3792 24.6222 17.9248 25.9486C18.0496 26.2542 18.2256 26.379 18.5536 26.3742C19.4416 26.3598 20.3312 26.3726 21.2192 26.3678C21.7824 26.3646 21.8816 26.1998 21.6272 25.7086C20.7632 24.0462 19.8976 22.3854 19.0336 20.723C18.9584 20.5774 18.8896 20.4286 18.8096 20.2622C18.9264 20.2222 18.9936 20.1966 19.0608 20.179C20.4976 19.787 21.8112 19.1454 22.9904 18.2286C23.2432 18.0334 23.288 17.8542 23.0864 17.5886C22.6224 16.979 22.1728 16.3566 21.7264 15.7342C21.5312 15.4606 21.3392 15.467 21.0848 15.6622C20.688 15.9646 20.2896 16.2686 19.8608 16.5214C18.3792 17.3966 16.7856 17.7694 15.0656 17.5214C13.5664 17.3054 12.2688 16.6494 11.1008 15.7102C10.7504 15.4286 10.6384 15.435 10.3888 15.7742C9.95518 16.3614 9.52478 16.9518 9.09598 17.5422C8.82078 17.9214 8.82878 17.979 9.21118 18.2766C10.3008 19.123 11.5136 19.7246 12.8368 20.1102C12.9936 20.155 13.1472 20.2062 13.3296 20.2622C13.2528 20.4174 13.2032 20.5262 13.1472 20.6318C12.2608 22.3374 11.3744 24.0414 10.4896 25.7486C10.2656 26.1806 10.3696 26.363 10.8528 26.3678C11.7776 26.3758 12.704 26.3662 13.6288 26.3742C13.9072 26.3774 14.0816 26.275 14.1872 26.0078C14.3968 25.4766 14.6272 24.9534 14.8496 24.427C15.2384 23.5086 15.6272 22.5918 16.0576 21.5742ZM10.7728 10.3406C10.768 13.2974 13.1136 15.6542 16.064 15.6574C19.0016 15.6606 21.3568 13.3214 21.3664 10.3886C21.3776 7.42216 19 5.02696 16.0576 5.03656C13.136 5.04776 10.7776 7.41416 10.7728 10.3406Z" fill="#EAD3AC"/>
<path d="M18.3952 10.3567C18.3952 11.6735 17.376 12.6895 16.0592 12.6879C14.7488 12.6847 13.7344 11.6575 13.7408 10.3391C13.7472 9.03829 14.7536 8.03509 16.0576 8.03029C17.3792 8.02549 18.3952 9.03829 18.3952 10.3567Z" fill="#EAD3AC"/>
</g>
</g>
</g>
<defs>
<clipPath id="clip0_1_2511">
<rect width="32" height="32" fill="white"/>
</clipPath>
<clipPath id="clip1_1_2511">
<rect width="32" height="32" fill="white"/>
</clipPath>
<clipPath id="clip2_1_2511">
<rect width="32" height="32" fill="white"/>
</clipPath>
</defs>
</svg>
