<svg width="34" height="34" viewBox="0 0 34 34" fill="none" xmlns="http://www.w3.org/2000/svg">
<path d="M33.3322 13.8885L21.5921 9.19222L21.7775 7.52569C21.8121 7.11078 22.0602 3.40903 20.1514 1.3345C19.3481 0.461125 18.2585 0 17 0C15.7415 0 14.6519 0.461125 13.8481 1.3345C11.9393 3.40903 12.1874 7.11078 12.2251 7.55491L12.4217 9.32609L0.639625 14.4314C0.251812 14.5993 0 14.9828 0 15.4062V18.0625C0 18.649 0.476 19.125 1.0625 19.125H13.5113L14.3076 26.2937L11.024 28.9202C10.7716 29.1215 10.625 29.4275 10.625 29.75V30.8125C10.625 31.399 11.101 31.875 11.6875 31.875H14.9441C15.1651 32.9912 15.8445 34 17 34C18.1613 34 18.8408 32.9821 19.0565 31.875H22.3125C22.899 31.875 23.375 31.399 23.375 30.8125V29.75C23.375 29.4275 23.2284 29.1215 22.976 28.9202L19.6924 26.2937L20.4887 19.125H32.9375C33.524 19.125 34 18.649 34 18.0625V14.875C34 14.441 33.7354 14.0494 33.3322 13.8885ZM1.0625 15.4062L12.5449 10.4306L13.1569 15.9375H1.0625V15.4062ZM13.3928 18.0625H1.0625V17H13.2749L13.3928 18.0625ZM11.6875 30.8125V29.75L14.4463 27.5432L14.8097 30.8125H11.6875ZM22.3125 29.75V30.8125H19.1903L19.5537 27.5432L22.3125 29.75ZM18.0598 31.3661C18.011 31.909 17.7267 32.9375 17 32.9375C16.2738 32.9375 15.9874 31.8947 15.9348 31.3225L13.2834 7.45184C13.2616 7.18197 13.0268 3.79631 14.6301 2.05381C15.2357 1.39612 16.0331 1.0625 17 1.0625C17.9669 1.0625 18.7643 1.39612 19.3699 2.05381C20.9679 3.791 20.7411 7.15169 20.7198 7.42369L18.0598 31.3661ZM32.9375 18.0625H20.6067L20.7251 17H32.9375V18.0625ZM32.9375 15.9375H20.8431L21.4705 10.2882L32.9375 14.875V15.9375Z" fill="white"/>
</svg>
