<svg width="27" height="32" viewBox="0 0 27 32" fill="none" xmlns="http://www.w3.org/2000/svg">
<path d="M22.1619 5.66482L24.3275 3.49926L21.4074 2.89213L20.8522 0L15.65 5.20232V3.56063H10.7183V5.13664L5.5817 0L5.02663 2.89213L2.1065 3.49926L4.27201 5.66482H0V10.7938H5.24413L10.7183 16.268V20.8381L3.51794 13.6377V11.7143H2.53157V32H23.8365V11.7143H22.8502V15.0749L18.569 10.7936H26.3681V5.66482H22.1619ZM20.2343 2.01288L20.5626 3.72401L22.3386 4.0932L20.767 5.66476H16.5825L20.2343 2.01288ZM4.09526 4.09326L5.87126 3.72401L6.19964 2.01294L9.85152 5.66482H5.66682L4.09526 4.09326ZM10.7182 14.8731L6.63895 10.7938H10.7182V14.8731ZM0.986314 9.80746V6.6512H10.7182V9.80746H0.986314ZM3.51794 15.0327L10.7182 22.2329V26.8031L3.51794 19.6028V15.0327ZM3.51794 31.0138V26.9627L7.56895 31.0138H3.51794ZM8.96389 31.0138L3.51801 25.5678V20.9977L10.7183 28.1979V29.9945H11.7046V4.54695H14.6635V29.9945H15.6498V27.1646L19.4989 31.0137H8.96389V31.0138ZM22.8502 31.0138H20.8939L15.6499 25.7697V21.1997L22.8502 28.4V31.0138ZM22.8502 27.005L15.6499 19.8047V15.2347L22.8502 22.435V27.005ZM22.8502 16.47V21.04L15.6499 13.8397V10.7938H17.174L22.8502 16.47ZM25.3818 9.80746H15.6499V6.6512H25.3818V9.80746Z" fill="white"/>
</svg>
