<?xml version="1.0" encoding="utf-8"?>
<!-- Generator: Adobe Illustrator 27.9.0, SVG Export Plug-In . SVG Version: 6.00 Build 0)  -->
<svg version="1.1" id="Слой_1" xmlns="http://www.w3.org/2000/svg" xmlns:xlink="http://www.w3.org/1999/xlink" x="0px" y="0px"
	 viewBox="0 0 21 33" style="enable-background:new 0 0 21 33;" xml:space="preserve">
<style type="text/css">
	.st0{fill:#FFFFFF;}
</style>
<path class="st0" d="M0.4,32.7l-0.1-1C0,24.4-0.1,19.1,0.2,15.9c0.3-3.5,2.9-6.2,7.5-8.1l0.5,1.2C4,10.7,1.8,13,1.5,16
	c-0.3,3-0.3,7.9,0,14.6c5.8-3.3,10-5.8,12.4-7.3c2.4-1.5,3.2-4.7,2.6-9.5l1.3-0.2c0.7,5.3-0.4,8.9-3.2,10.7
	c-2.6,1.7-7.1,4.3-13.4,7.9L0.4,32.7z"/>
<rect x="2.3" y="13" transform="matrix(0.5052 -0.863 0.863 0.5052 -11.6667 10.089)" class="st0" width="1.3" height="4.4"/>
<rect x="13.2" y="19.4" transform="matrix(0.5051 -0.8631 0.8631 0.5051 -11.7798 22.6694)" class="st0" width="1.3" height="4.4"/>
<rect x="-2.4" y="24.9" transform="matrix(0.4951 -0.8689 0.8689 0.4951 -20.0076 16.6854)" class="st0" width="13.5" height="1.3"/>
<path class="st0" d="M8.4,20.9c-0.4,0-0.9-0.1-1.2-0.3v0c-1.2-0.7-1.6-2.2-0.9-3.4c0.3-0.6,0.9-1,1.5-1.2c0.6-0.2,1.3-0.1,1.9,0.3
	c1.2,0.7,1.6,2.2,0.9,3.4c-0.3,0.6-0.9,1-1.5,1.2C8.9,20.9,8.6,20.9,8.4,20.9z M7.8,19.5c0.3,0.2,0.6,0.2,0.9,0.1
	C9,19.5,9.3,19.3,9.5,19c0.3-0.6,0.1-1.3-0.4-1.7c-0.3-0.2-0.6-0.2-0.9-0.1c-0.3,0.1-0.6,0.3-0.7,0.6C7,18.4,7.3,19.1,7.8,19.5
	L7.8,19.5z"/>
<path class="st0" d="M17.8,14.1c-0.4,0-0.9-0.1-1.2-0.3L8.3,9C7.2,8.3,6.7,6.7,7.4,5.5c0.3-0.6,0.9-1,1.5-1.2
	c0.6-0.2,1.3-0.1,1.9,0.3L19,9.4c1.2,0.7,1.6,2.2,0.9,3.4c-0.3,0.6-0.9,1-1.5,1.2C18.2,14.1,18,14.1,17.8,14.1z M9.6,5.6
	c-0.1,0-0.2,0-0.3,0C9,5.7,8.7,5.9,8.5,6.2C8.2,6.8,8.4,7.5,9,7.8l8.2,4.8c0.3,0.2,0.6,0.2,0.9,0.1c0.3-0.1,0.6-0.3,0.7-0.6
	c0.3-0.6,0.1-1.3-0.4-1.7l-8.2-4.8C10,5.6,9.8,5.6,9.6,5.6z"/>
<path class="st0" d="M19,10.3l-8.9-5.2l1.5-2.6c0.7-1.2,1.8-2,3.1-2.4s2.7-0.2,3.9,0.5c2.4,1.4,3.3,4.6,1.9,7L19,10.3z M11.9,4.6
	l6.6,3.9L19.4,7c1.1-1.9,0.4-4.2-1.4-5.3C17,1.2,16,1,15,1.3c-1,0.3-1.8,0.9-2.3,1.8L11.9,4.6z"/>
</svg>
