<?xml version="1.0" encoding="utf-8"?>
<!-- Generator: Adobe Illustrator 27.9.0, SVG Export Plug-In . SVG Version: 6.00 Build 0)  -->
<svg version="1.1" id="Слой_1" xmlns="http://www.w3.org/2000/svg" xmlns:xlink="http://www.w3.org/1999/xlink" x="0px" y="0px"
	 viewBox="0 0 23 32" style="enable-background:new 0 0 23 32;" xml:space="preserve">
<style type="text/css">
	.st0{fill:#FFFFFF;}
</style>
<path class="st0" d="M11.5,31.9c-6.4,0-11.6-5.2-11.6-11.5c0-6.3,5.2-11.5,11.6-11.5c6.4,0,11.6,5.2,11.6,11.5
	C23.1,26.8,17.9,31.9,11.5,31.9z M11.5,10.1c-5.7,0-10.4,4.6-10.4,10.3s4.7,10.3,10.4,10.3c5.7,0,10.4-4.6,10.4-10.3
	S17.2,10.1,11.5,10.1z"/>
<path class="st0" d="M11.5,29.9c-5.3,0-9.6-4.3-9.6-9.5c0-5.2,4.3-9.5,9.6-9.5c5.3,0,9.6,4.3,9.6,9.5C21.1,25.6,16.8,29.9,11.5,29.9
	z M11.5,12.1c-4.6,0-8.4,3.7-8.4,8.3c0,4.6,3.8,8.3,8.4,8.3c4.6,0,8.4-3.7,8.4-8.3C19.9,15.8,16.1,12.1,11.5,12.1z"/>
<polygon class="st0" points="14.3,10 13.4,9.1 17.8,4.6 15,1.5 8.5,1.5 5.7,4.6 10,9.1 9.1,10 4.1,4.6 7.9,0.3 15.5,0.3 19.4,4.6 
	"/>
<polygon class="st0" points="9.3,6.8 8.2,4.5 9.2,1 10.4,1.3 9.5,4.4 10.4,6.3 "/>
<polygon class="st0" points="14.2,6.8 13.1,6.3 14,4.4 13.1,1.2 14.2,0.8 15.3,4.5 "/>
<rect x="14" y="3.9" class="st0" width="5" height="1.2"/>
<rect x="4.4" y="3.9" class="st0" width="5" height="1.2"/>
<rect x="11.1" y="0.6" class="st0" width="1.2" height="6.4"/>
</svg>
