<svg width="15" height="40" viewBox="0 0 15 40" fill="none" xmlns="http://www.w3.org/2000/svg">
<g clip-path="url(#clip0_1_17136)">
<path d="M8.55562 22.6796V19.5408V18.5283H7.54312H6.02437H5.01187V19.5408V22.6796H1.215H0.202499V23.6921V25.2108V26.2233H1.215H5.01187V38.7277V39.7402H6.02437H7.54312H8.55562V38.7277V26.2233H12.4537H13.4662V25.2108V23.6921V22.6796H12.4537H8.55562ZM12.4031 25.2108H7.4925V38.7277H5.97375V25.2108H1.215V23.6921H6.02437V19.5408H7.54312V23.6921H12.4537V25.2108H12.4031Z" fill="white"/>
<path d="M13.0612 11.6438C12.4537 11.8463 11.7956 11.8969 11.1881 11.8969C7.4925 11.8969 4.50562 8.91004 4.50562 5.21441C4.50562 3.64504 5.0625 2.07566 6.075 0.911288C6.22687 0.759413 6.63187 0.303788 6.53062 0.101288C6.42937 -0.101212 5.77125 3.8432e-05 5.56875 0.101288C2.27812 1.06316 0 4.10066 0 7.49254C0 11.745 3.4425 15.1875 7.695 15.1875C9.97312 15.1875 12.0994 14.175 13.5675 12.4538C13.7194 12.3019 14.0231 11.6438 13.9725 11.4919C13.9219 11.3907 13.3144 11.5932 13.0612 11.6438ZM7.695 14.175C3.99937 14.175 1.0125 11.1882 1.0125 7.49254C1.0125 5.11316 2.32875 2.88566 4.30312 1.72129C3.74625 2.78441 3.4425 3.99941 3.4425 5.21441C3.4425 9.46691 6.885 12.9094 11.1375 12.9094C11.2894 12.9094 11.4412 12.9094 11.5931 12.9094C10.4794 13.7194 9.1125 14.175 7.695 14.175Z" fill="white"/>
<path d="M10.125 6.88484L11.1375 9.11234L12.2512 6.98609L14.6812 6.73297L13.0106 4.96109L13.4662 2.63234L11.34 3.64484L9.21375 2.48047L9.56812 4.85984L7.79625 6.47984L10.125 6.88484Z" fill="white"/>
</g>
<defs>
<clipPath id="clip0_1_17136">
<rect width="14.6812" height="39.69" fill="white"/>
</clipPath>
</defs>
</svg>
