<svg width="30" height="26" viewBox="0 0 30 26" fill="none" xmlns="http://www.w3.org/2000/svg">
<path d="M15.4115 15.4764H4.58964V11.1407H15.4115C16.0437 11.1407 16.4832 11.2522 16.7038 11.447C16.9244 11.6418 17.061 12.0031 17.061 12.531V14.0878C17.061 14.6439 16.9244 15.0052 16.7038 15.2001C16.4832 15.3949 16.0437 15.4781 15.4115 15.4781V15.4764ZM16.154 7.05294H0.00012207V25.595H4.58964V19.5625H13.0476L17.061 25.595H22.2003L17.7754 19.5342C19.4068 19.2894 20.1393 18.7832 20.7435 17.949C21.3476 17.1149 21.6505 15.7812 21.6505 14.0012V12.6109C21.6505 11.5552 21.5402 10.721 21.3476 10.0817C21.155 9.44228 20.8258 8.88616 20.3583 8.38665C19.8644 7.91376 19.3146 7.58076 18.6545 7.35763C17.9944 7.16282 17.1696 7.05127 16.154 7.05127V7.05294Z" fill="white"/>
<path d="M25.7264 7.05183C27.6737 7.05183 29.2523 5.47322 29.2523 3.52592C29.2523 1.57861 27.6737 0 25.7264 0C23.7791 0 22.2004 1.57861 22.2004 3.52592C22.2004 5.47322 23.7791 7.05183 25.7264 7.05183Z" fill="white"/>
</svg>
