<svg width="25" height="27" viewBox="0 0 25 27" fill="none" xmlns="http://www.w3.org/2000/svg">
<path d="M25 23.6708L22.4689 26.1905L13.0952 16.8054L15.6263 14.2857L25 23.6708Z" fill="white"/>
<path d="M16.653 10.1182C16.6527 6.4999 13.723 3.57618 10.1199 3.57584C6.51659 3.57584 3.58543 6.49969 3.58512 10.1182C3.58512 13.7369 6.5164 16.6622 10.1199 16.6622C13.7232 16.6619 16.653 13.7367 16.653 10.1182ZM20.2381 10.1182C20.2381 15.7012 15.7136 20.2378 10.1199 20.2381C4.52598 20.2381 0 15.7014 0 10.1182C0.000307724 4.53521 4.52617 0 10.1199 0C15.7134 0.000335868 20.2378 4.53541 20.2381 10.1182Z" fill="white"/>
</svg>
