<?xml version="1.0" encoding="utf-8"?>
<!-- Generator: Adobe Illustrator 27.9.0, SVG Export Plug-In . SVG Version: 6.00 Build 0)  -->
<svg version="1.1" id="Слой_1" xmlns="http://www.w3.org/2000/svg" xmlns:xlink="http://www.w3.org/1999/xlink" x="0px" y="0px"
	 viewBox="0 0 28 28" style="enable-background:new 0 0 28 28;" xml:space="preserve">
<style type="text/css">
	.st0{fill:#FFFFFF;}
</style>
<polygon class="st0" points="10.5,21.6 9.6,20.7 26.5,5.9 26.7,1.1 21.8,1.1 7.1,18.1 6.2,17.3 21.2,-0.2 28,-0.2 27.7,6.5 "/>
<rect x="6.3" y="13.2" transform="matrix(0.7036 -0.7106 0.7106 0.7036 -5.6477 14.007)" class="st0" width="15.3" height="1.2"/>
<polygon class="st0" points="12.8,26.3 11.6,26.3 11.6,23.6 3.7,15.9 1.2,15.9 1.2,14.6 4.3,14.6 12.8,23.1 "/>
<path class="st0" d="M5.7,25.1l-0.7-1l4.6-3.3l0.7,1L5.7,25.1z M4,22.9l-1-0.7l3-4.6l1,0.7L4,22.9z"/>
<path class="st0" d="M3,28.2c-1.8,0-3.2-1.4-3.2-3.2c0-1.8,1.4-3.2,3.2-3.2s3.2,1.4,3.2,3.2C6.2,26.7,4.7,28.2,3,28.2z M3,23
	c-1.1,0-1.9,0.9-1.9,2c0,1.1,0.9,2,1.9,2s1.9-0.9,1.9-2C4.9,23.9,4.1,23,3,23z"/>
</svg>
