<svg width="28" height="23" viewBox="0 0 28 23" fill="none" xmlns="http://www.w3.org/2000/svg">
<path fill-rule="evenodd" clip-rule="evenodd" d="M1.90072 9.88528C9.32265 6.64472 14.2718 4.50834 16.7481 3.47615C23.8184 0.52903 25.2876 0.017085 26.2452 0.000180242C26.4558 -0.00353777 26.9267 0.0487696 27.2317 0.296816C27.4893 0.506261 27.5601 0.789191 27.5941 0.987768C27.628 1.18635 27.6702 1.63871 27.6366 1.99217C27.2535 6.02655 25.5956 15.8169 24.7522 20.3355C24.3953 22.2475 23.6926 22.8885 23.0123 22.9513C21.5338 23.0876 20.4111 21.9721 18.9791 21.0314C16.7384 19.5594 15.4725 18.6431 13.2975 17.2067C10.7838 15.5467 12.4133 14.6343 13.8458 13.1432C14.2207 12.753 20.7349 6.81514 20.861 6.27648C20.8768 6.20911 20.8914 5.95799 20.7425 5.8254C20.5937 5.6928 20.374 5.73814 20.2154 5.7742C19.9907 5.82532 16.411 8.19641 9.47648 12.8875C8.46041 13.5867 7.54009 13.9274 6.71551 13.9095C5.80648 13.8898 4.05786 13.3944 2.75795 12.971C1.16355 12.4516 -0.103646 12.177 0.00669821 11.2949C0.0641723 10.8354 0.695512 10.3656 1.90072 9.88528Z" fill="white"/>
</svg>
