<svg width="21" height="21" viewBox="0 0 21 21" fill="none" xmlns="http://www.w3.org/2000/svg">
<path d="M10.2837 2.16064e-06C4.60837 -0.00363784 0.00234089 4.59238 8.92708e-07 10.2614C-0.00233911 15.9353 4.59589 20.5394 10.2661 20.5405C15.931 20.5417 20.5357 15.947 20.5405 10.2883C20.5453 4.61136 15.9517 0.00364216 10.2837 2.16064e-06ZM14.7182 10.8875C14.5189 12.119 14.2948 13.3466 14.073 14.5744C14.0384 14.7658 13.974 14.9559 13.8953 15.1341C13.7038 15.5682 13.407 15.713 12.9533 15.5636C12.7065 15.4824 12.4682 15.353 12.2506 15.2084C11.2667 14.5551 10.2907 13.89 9.31437 13.2253C9.16253 13.1219 9.01095 13.0118 8.88277 12.8816C8.64448 12.6395 8.62537 12.3998 8.84546 12.1424C9.08076 11.8672 9.34154 11.6126 9.60284 11.3612C10.4676 10.5291 11.338 9.70294 12.2047 8.87276C12.2799 8.80074 12.3587 8.72456 12.4066 8.63473C12.438 8.57558 12.443 8.47314 12.411 8.41867C12.385 8.37447 12.2794 8.34405 12.2218 8.35848C12.1238 8.38305 12.0303 8.43934 11.9443 8.49641C10.611 9.38002 9.28018 10.2675 7.94599 11.1498C7.68495 11.3225 7.41871 11.4901 7.14246 11.6367C6.73127 11.8551 6.29356 11.8201 5.86482 11.7001C5.2793 11.5362 4.69794 11.3563 4.11801 11.1734C3.99152 11.1335 3.86776 11.0657 3.76129 10.986C3.5867 10.8553 3.5672 10.6503 3.73295 10.5105C3.8948 10.374 4.08044 10.2535 4.2744 10.1689C6.06658 9.38652 7.85759 8.60132 9.65952 7.84186C11.059 7.25205 12.4723 6.69526 13.8824 6.13132C14.0865 6.04968 14.3039 5.99001 14.5207 5.95387C14.6172 5.93775 14.7038 5.93125 14.7817 5.93346C14.7853 5.93346 14.7887 5.93294 14.7923 5.93294C15.1681 5.93294 15.3548 6.22271 15.3565 6.51417C15.37 6.60595 15.3644 6.70098 15.34 6.79016C15.134 8.15581 14.9388 9.52367 14.7182 10.8875Z" fill="#29ABE2"/>
</svg>
