<svg width="24" height="32" viewBox="0 0 24 32" fill="none" xmlns="http://www.w3.org/2000/svg">
<path d="M15.4417 8.84194V4.74075C15.4417 4.4135 15.1076 4.14044 14.7804 4.14044H12.4788V0.592625C12.4788 0.265375 12.2134 0 11.8862 0C11.5589 0 11.2936 0.265375 11.2936 0.592625V4.14044H8.8545C8.52725 4.14044 8.33063 4.4135 8.33063 4.74075V8.84194C3.44175 10.3558 0 14.8515 0 20.1481C0 26.6831 5.29963 32 11.8346 32C18.3696 32 23.7123 26.6832 23.7123 20.1481C23.7122 14.8515 20.1824 10.3558 15.4417 8.84194ZM9.51575 5.32562H14.2565V8.53481C13.3676 8.37869 12.6977 8.29631 11.8861 8.29631C11.0746 8.29631 10.2565 8.37869 9.51575 8.53481V5.32562ZM11.8174 30.8148C5.93575 30.8148 1.15069 26.0298 1.15069 20.1481C1.15069 14.2665 5.93569 9.48144 11.8174 9.48144C17.699 9.48144 22.4841 14.2664 22.4841 20.1481C22.4841 26.0298 17.6991 30.8148 11.8174 30.8148Z" fill="white"/>
<path d="M12.2071 14.7182C12.1374 14.5038 11.9519 14.3473 11.7288 14.3148L9.70019 14.02L8.79338 12.1823C8.59375 11.7778 7.92994 11.7778 7.73031 12.1823L6.8235 14.02L4.79488 14.3148C4.57175 14.3473 4.38631 14.5038 4.31656 14.7182C4.24681 14.9329 4.305 15.1685 4.46675 15.3258L5.93438 16.7564L5.588 18.7764C5.54981 18.9987 5.64094 19.2235 5.8235 19.356C6.00669 19.4888 6.24856 19.5058 6.44763 19.4011L8.26188 18.4474L10.0761 19.4011C10.1629 19.4465 10.2576 19.4691 10.3519 19.4691C10.4746 19.4691 10.5969 19.4309 10.7003 19.356C10.8828 19.2235 10.974 18.9986 10.9358 18.7764L10.5894 16.7564L12.057 15.3258C12.2187 15.1685 12.2769 14.9329 12.2071 14.7182ZM9.53906 16.125C9.39931 16.2613 9.33538 16.4575 9.36838 16.6496L9.56488 17.7931L8.53769 17.2532C8.45144 17.2077 8.35656 17.1852 8.26194 17.1852C8.16731 17.1852 8.07244 17.2077 7.98619 17.2532L6.959 17.7931L7.1555 16.6496C7.1885 16.4575 7.12456 16.2613 6.98475 16.125L6.15375 15.3152L7.3025 15.1482C7.4955 15.1202 7.66219 14.9989 7.74869 14.8238L8.262 13.7836L8.77531 14.8238C8.86181 14.9989 9.0285 15.1202 9.2215 15.1482L10.3703 15.3152L9.53906 16.125Z" fill="white"/>
<path d="M19.3183 23.6069C19.2485 23.3925 19.0631 23.236 18.8399 23.2035L16.8113 22.9086L15.9045 21.071C15.7049 20.6665 15.0411 20.6665 14.8414 21.071L13.9346 22.9086L11.906 23.2035C11.6829 23.236 11.4974 23.3925 11.4277 23.6069C11.3579 23.8216 11.4161 24.0571 11.5779 24.2145L13.0455 25.6451L12.6991 27.6651C12.6609 27.8873 12.7521 28.1121 12.9346 28.2446C13.1175 28.3775 13.3594 28.3945 13.5588 28.2898L15.373 27.3361L17.1873 28.2898C17.2741 28.3352 17.3687 28.3578 17.463 28.3578C17.5857 28.3578 17.7081 28.3196 17.8114 28.2446C17.9939 28.1121 18.0851 27.8873 18.0469 27.6651L17.7006 25.6451L19.1681 24.2145C19.3298 24.0571 19.388 23.8216 19.3183 23.6069ZM16.6501 25.0137C16.5104 25.15 16.4464 25.3461 16.4794 25.5383L16.6759 26.6818L15.6488 26.1418C15.5625 26.0964 15.4676 26.0738 15.373 26.0738C15.2784 26.0738 15.1835 26.0964 15.0973 26.1418L14.0701 26.6818L14.2666 25.5383C14.2996 25.3461 14.2356 25.15 14.0958 25.0137L13.2648 24.2038L14.4136 24.0369C14.6066 24.0088 14.7733 23.8876 14.8598 23.7125L15.3731 22.6723L15.8864 23.7125C15.9729 23.8876 16.1396 24.0088 16.3326 24.0369L17.4813 24.2038L16.6501 25.0137Z" fill="white"/>
</svg>
