<?xml version="1.0" encoding="utf-8"?>
<!-- Generator: Adobe Illustrator 27.9.0, SVG Export Plug-In . SVG Version: 6.00 Build 0)  -->
<svg version="1.1" id="Слой_1" xmlns="http://www.w3.org/2000/svg" xmlns:xlink="http://www.w3.org/1999/xlink" x="0px" y="0px"
	 viewBox="0 0 23 35" style="enable-background:new 0 0 23 35;" xml:space="preserve">
<style type="text/css">
	.st0{fill:#FFFFFF;}
</style>
<path class="st0" d="M11.3,34.9H5.4c-0.3,0-0.6-0.3-0.6-0.6v-2.1c-3.2-4.7-4.9-8.6-4.9-11.6c0-4.7,2.2-7,4.2-8.8
	C6,10.2,6.3,8.7,6.3,6.4c0-1.5-0.6-3.4-1.7-5.6c-0.1-0.2-0.1-0.4,0-0.6s0.3-0.3,0.5-0.3h6.2c0.3,0,0.6,0.3,0.6,0.6s-0.3,0.6-0.6,0.6
	H6c1,2,1.4,3.8,1.4,5.3c0,2.5-0.4,4.4-2.6,6.3c-1.9,1.7-3.8,3.8-3.8,8c0,2.8,1.6,6.6,4.8,11.1C5.9,31.9,6,32,6,32.1v1.7h5.3
	c0.3,0,0.6,0.3,0.6,0.6S11.6,34.9,11.3,34.9z"/>
<path class="st0" d="M17.4,34.9h-5.9c-0.3,0-0.6-0.3-0.6-0.6s0.3-0.6,0.6-0.6h5.3v-1.7c0-0.1,0-0.2,0.1-0.3
	c3.2-4.6,4.8-8.3,4.8-11.1c0-4.2-1.9-6.3-3.8-8c-2.2-1.9-2.6-3.8-2.6-6.3c0-1.5,0.5-3.2,1.4-5.3h-5.3c-0.3,0-0.6-0.3-0.6-0.6
	s0.3-0.6,0.6-0.6h6.2c0.2,0,0.4,0.1,0.5,0.3s0.1,0.4,0,0.6c-1.1,2.2-1.7,4.1-1.7,5.6c0,2.3,0.3,3.8,2.2,5.4c2,1.8,4.2,4.1,4.2,8.8
	c0,3-1.6,6.9-4.9,11.6v2.1C18,34.7,17.7,34.9,17.4,34.9z"/>
<path class="st0" d="M11.5,28.2c-4.1,0-7.5-3.4-7.5-7.6s3.3-7.6,7.5-7.6c4.1,0,7.5,3.4,7.5,7.6S15.6,28.2,11.5,28.2z M11.5,14.2
	c-3.5,0-6.3,2.9-6.3,6.4c0,3.5,2.8,6.4,6.3,6.4s6.3-2.9,6.3-6.4C17.8,17.1,15,14.2,11.5,14.2z"/>
<rect x="5.5" y="31.7" class="st0" width="12" height="1.2"/>
<rect x="6.7" y="8.2" class="st0" width="9.3" height="1.2"/>
<rect x="6.7" y="4.3" class="st0" width="9.3" height="1.2"/>
<path class="st0" d="M9.1,7.3c0.3,0,0.5-0.2,0.5-0.5c0-0.3-0.2-0.5-0.5-0.5c-0.3,0-0.5,0.2-0.5,0.5C8.6,7.1,8.8,7.3,9.1,7.3z"/>
<path class="st0" d="M11.5,7.3c0.3,0,0.5-0.2,0.5-0.5c0-0.3-0.2-0.5-0.5-0.5S11,6.5,11,6.8C11,7.1,11.2,7.3,11.5,7.3z"/>
<path class="st0" d="M13.9,7.3c0.3,0,0.5-0.2,0.5-0.5c0-0.3-0.2-0.5-0.5-0.5s-0.5,0.2-0.5,0.5C13.4,7.1,13.6,7.3,13.9,7.3z"/>
</svg>
