<svg width="31" height="31" viewBox="0 0 31 31" fill="none" xmlns="http://www.w3.org/2000/svg">
<path d="M11.7104 0C13.9688 0 16.2256 0 18.4839 0C18.6126 0.0093 18.7412 0.02635 18.8699 0.02635C20.1192 0.031 21.3669 0.06045 22.6116 0.17205C22.9634 0.20305 23.3168 0.2232 23.6656 0.2728C24.0949 0.3348 24.5227 0.41075 24.9474 0.50375C25.3473 0.59055 25.7395 0.71145 26.1223 0.8618C26.6741 1.0788 27.1934 1.35625 27.6568 1.72825C28.6163 2.49705 29.2316 3.4937 29.5881 4.66085C29.7199 5.09175 29.8222 5.52885 29.8966 5.97215C29.9601 6.35345 30.0035 6.73785 30.0516 7.1207C30.0717 7.28345 30.081 7.44775 30.095 7.61205C30.1198 7.90035 30.1586 8.18865 30.1679 8.4785C30.1942 9.2628 30.2097 10.0471 30.2298 10.8299C30.2314 10.9105 30.2484 10.9926 30.2577 11.0732C30.2577 13.6803 30.2577 16.2859 30.2577 18.893C30.2516 18.9643 30.2407 19.0371 30.2391 19.1084C30.2159 19.9656 30.1973 20.8227 30.1725 21.6783C30.1663 21.9201 30.1508 22.1619 30.1275 22.4021C30.0903 22.7974 30.0532 23.1926 30.0005 23.5848C29.9462 23.9909 29.8857 24.3986 29.8036 24.8C29.7121 25.2495 29.5835 25.6897 29.4161 26.1175C29.2177 26.6243 28.9681 27.1017 28.6442 27.5389C28.1761 28.1712 27.5964 28.675 26.9097 29.0548C26.2634 29.4128 25.5706 29.6422 24.8498 29.8003C24.2639 29.9289 23.6733 30.0219 23.0766 30.0762C22.903 30.0917 22.7294 30.1056 22.5558 30.1196C22.1993 30.1475 21.8428 30.1754 21.4847 30.1987C21.3018 30.2111 21.1174 30.2111 20.9329 30.2157C19.5829 30.2421 18.2328 30.2824 16.8812 30.2901C15.0026 30.2994 13.124 30.3056 11.2439 30.2606C10.2999 30.2389 9.356 30.2327 8.4136 30.1707C7.91605 30.1382 7.42005 30.0963 6.92405 30.056C6.80315 30.0467 6.6838 30.0343 6.56445 30.0142C6.31645 29.9739 6.06845 29.9321 5.822 29.8855C5.57555 29.8391 5.3291 29.7941 5.08575 29.7321C4.6223 29.6143 4.1728 29.4547 3.7357 29.2563C2.9545 28.9013 2.3004 28.3852 1.75325 27.728C1.47735 27.3962 1.25415 27.0289 1.0635 26.6414C0.843398 26.1934 0.677548 25.7253 0.555098 25.2417C0.480698 24.9472 0.423349 24.6481 0.369099 24.3505C0.314849 24.056 0.272998 23.7599 0.231148 23.4639C0.209448 23.3151 0.195498 23.1663 0.183098 23.0175C0.155198 22.6796 0.130398 22.3433 0.105598 22.0054C0.100948 21.9527 0.107148 21.8984 0.0993985 21.8457C0.0203485 21.3218 0.0761485 20.7901 0.0203485 20.2663C0.0141485 17.8762 0.00484849 15.483 0.000198487 13.0913C-0.00135151 12.2295 0.00639847 11.3677 0.0156985 10.5044C0.0203485 10.0936 0.0358485 9.6813 0.0528985 9.27055C0.0699485 8.83965 0.0869985 8.4103 0.119548 7.98095C0.147448 7.60585 0.198598 7.23075 0.229598 6.85565C0.266798 6.41235 0.350499 5.97525 0.437299 5.5397C0.524099 5.10415 0.649649 4.6779 0.801549 4.2594C1.0325 3.62855 1.35025 3.04575 1.78115 2.52805C2.1454 2.09095 2.567 1.71585 3.0506 1.4105C3.43965 1.16405 3.8504 0.9672 4.28285 0.8091C4.71995 0.651 5.1648 0.5239 5.62205 0.4433C6.0545 0.36735 6.48695 0.2852 6.9225 0.2356C7.4805 0.17205 8.04005 0.1302 8.5996 0.093C9.00105 0.06665 9.4025 0.06045 9.80395 0.05115C10.4146 0.03875 11.0238 0.031 11.6345 0.0217C11.6608 0.0217 11.6856 0.00775 11.7104 0ZM24.515 9.238C24.4313 9.238 24.3646 9.238 24.298 9.238C23.3292 9.23645 22.3605 9.2349 21.3917 9.23335C21.2646 9.23335 21.2662 9.23955 21.2228 9.3651C21.1391 9.61155 21.06 9.8611 20.9608 10.1014C20.6446 10.8671 20.2153 11.5676 19.6821 12.2016C19.1659 12.8139 18.5893 13.3533 17.8794 13.7377C17.5121 13.9361 17.1308 14.0988 16.7154 14.167C16.6472 14.1779 16.5759 14.1779 16.486 14.1856C16.486 12.5287 16.486 10.8934 16.486 9.2411C15.3994 9.22715 14.3315 9.238 13.2465 9.23335C13.2465 10.6966 13.248 12.1442 13.2465 13.5904C13.2449 15.035 13.248 16.4812 13.2248 17.9397C13.1147 17.9072 13.0264 17.8839 12.9396 17.8545C12.1909 17.5987 11.5585 17.1585 11.0114 16.5974C10.3604 15.9309 9.8861 15.1466 9.52495 14.291C9.30175 13.764 9.1173 13.2246 8.9964 12.6666C8.9065 12.2558 8.81505 11.8451 8.74995 11.4297C8.66315 10.8748 8.6089 10.3153 8.5934 9.7526C8.58875 9.5852 8.57325 9.41625 8.5624 9.24575C7.4123 9.24575 6.27615 9.24575 5.12605 9.24575C5.12295 9.31705 5.11365 9.37905 5.11675 9.4395C5.14155 9.85955 5.16635 10.2796 5.19735 10.6997C5.25005 11.4096 5.3508 12.1133 5.4934 12.8108C5.69025 13.7795 5.96615 14.725 6.35675 15.6364C6.75975 16.5757 7.2666 17.453 7.90985 18.2497C8.7298 19.2619 9.72025 20.0632 10.8765 20.6584C11.5492 21.004 12.256 21.2613 12.9907 21.4442C13.5549 21.5853 14.1269 21.6783 14.705 21.7434C15.2599 21.8054 15.8164 21.8054 16.3744 21.7992C16.4069 21.7992 16.4379 21.7899 16.4751 21.7837C16.4906 20.2941 16.4658 18.8139 16.503 17.329C16.5356 17.3274 16.5542 17.3244 16.5728 17.3259C17.1106 17.3864 17.6283 17.5197 18.1259 17.7289C18.8528 18.0358 19.4883 18.476 20.0432 19.0402C20.7159 19.7238 21.2088 20.5205 21.5514 21.4117C21.601 21.5419 21.6506 21.6705 21.6987 21.7945C21.7265 21.7992 21.7405 21.8023 21.756 21.8023C22.8751 21.8023 23.9942 21.8008 25.1133 21.7992C25.1582 21.7992 25.2048 21.7899 25.2729 21.7822C24.4313 18.955 22.7139 16.8733 20.1207 15.4907C20.2029 15.4365 20.268 15.3962 20.3315 15.3512C20.516 15.2256 20.7051 15.1079 20.8802 14.9715C21.9451 14.1469 22.8286 13.1595 23.4982 11.9893C23.9461 11.2081 24.2809 10.3804 24.4639 9.4953C24.4824 9.41625 24.4964 9.3372 24.515 9.238Z" fill="#A0AFB5"/>
</svg>
