<svg width="20" height="20" viewBox="0 0 20 20" fill="none" xmlns="http://www.w3.org/2000/svg">
<path d="M0.441794 18.6782C0.596169 18.2122 0.737419 17.7832 0.880294 17.3547C1.09492 16.7107 1.31404 16.0681 1.52104 15.4216C1.54454 15.3481 1.52742 15.2381 1.48654 15.1711C0.479669 13.5186 -0.0188313 11.7266 0.000543713 9.79194C0.0471687 5.14719 3.41142 1.09531 7.96692 0.194564C13.3424 -0.868311 18.5028 2.52556 19.6582 7.88356C20.8165 13.2554 17.3027 18.6096 11.8939 19.6709C9.01017 20.2368 6.37029 19.6201 3.99254 17.8933C3.88967 17.8186 3.80192 17.8014 3.68304 17.8331C2.67317 18.1022 1.66217 18.3669 0.651419 18.6324C0.595419 18.6473 0.538294 18.6573 0.441794 18.6782ZM12.6578 15.9091C13.0032 15.9179 13.4884 15.8016 13.8135 15.6397C14.4522 15.3217 14.927 14.8094 15.3937 14.2927C15.5614 14.1069 15.6263 13.8526 15.535 13.6097C15.4593 13.4078 15.3545 13.2038 15.2155 13.0411C14.7402 12.4844 14.1349 12.0842 13.517 11.7051C13.4182 11.6443 13.3002 11.6048 13.1857 11.5816C12.9462 11.5328 12.7458 11.5946 12.5852 11.7998C12.4124 12.0204 12.2237 12.2302 12.0272 12.4302C11.8328 12.6281 11.5844 12.7357 11.3098 12.7722C10.8875 12.8283 10.57 12.6203 10.29 12.3423C9.46204 11.5201 8.63617 10.6956 7.81579 9.86569C7.68854 9.73694 7.57367 9.58644 7.48892 9.42694C7.27354 9.02182 7.36129 8.48969 7.70342 8.14231C7.91117 7.93131 8.15204 7.75331 8.36542 7.54732C8.44992 7.46582 8.52192 7.35644 8.56104 7.24606C8.63204 7.04569 8.56979 6.84581 8.46742 6.67331C8.08329 6.02594 7.65717 5.40844 7.08704 4.90656C6.57792 4.45819 6.11229 4.47669 5.63579 4.95706C5.41517 5.17944 5.18942 5.39806 4.98529 5.63494C4.23654 6.50356 4.04879 7.48044 4.45104 8.56094C4.74267 9.34431 5.22504 10.0077 5.80092 10.5984C6.82267 11.6464 7.86567 12.6737 8.89742 13.7121C9.40804 14.2259 9.92267 14.7346 10.527 15.1411C11.1728 15.5754 11.8613 15.8918 12.6578 15.9091Z" fill="#22B573"/>
</svg>
