<?xml version="1.0" encoding="UTF-8"?>
<svg width="240px" height="63px" viewBox="0 0 240 63" version="1.1" xmlns="http://www.w3.org/2000/svg" xmlns:xlink="http://www.w3.org/1999/xlink">
    <!-- Generator: Sketch 51.2 (57519) - http://www.bohemiancoding.com/sketch -->
    <title>Group 5 Copy 2</title>
    <desc>Created with Sketch.</desc>
    <defs/>
    <g id="Page-1" stroke="none" stroke-width="1" fill="none" fill-rule="evenodd">
        <g id="1---главная" transform="translate(-520.000000, -115.000000)" fill="#FFFFFF">
            <g id="Group-5-Copy-2" transform="translate(520.000000, 115.000000)">
                <g id="Page-1">
                    <path d="M65.0972811,41.8982592 C64.8323727,41.9080678 64.5307898,41.9149338 64.2164363,41.8881236 L64.2164363,41.8433309 C61.9056103,41.4607945 61.5758665,40.6421013 61.5758665,35.9460589 L61.5758665,21.133728 C65.9008473,21.6781067 69.6095642,25.9785346 69.6095642,34.0343579 C69.6095642,37.5837722 68.7290468,41.6798538 65.0972811,41.8982592 M61.5758665,20.3549232 L61.5758665,4.05527792 L57.6683865,4.05527792 L57.6683865,35.9460589 C57.6683865,40.6421013 56.9529047,41.4607945 54.6974181,41.8433309 L54.6974181,42.2807955 L57.6683865,42.2807955 L60.3714995,42.2807955 C67.7064155,44.0237881 74.1215199,41.2198293 74.1215199,33.6524755 C74.1215199,24.7910371 66.27185,20.505976 61.5758665,20.3549232 M38.2988381,4.05491827 L31.2000147,4.05491827 L31.2000147,4.49140206 C33.0262123,4.80920149 33.4892289,5.46409066 33.1850264,8.29616751 C32.0595752,15.4518861 30.8342513,22.6514165 29.6374157,29.1885378 L24.9211302,10.389001 L24.9270243,10.3896549 C23.8814713,5.69328552 24.5422687,4.87393841 26.1926248,4.49140206 L26.1926248,4.05491827 L23.3313526,4.05491827 L19.0938014,4.05491827 L16.5075886,4.05491827 L16.5075886,4.49140206 C18.3157764,4.87230364 19.4150314,5.57885156 20.7821419,10.2209466 L28.1399795,37.0920005 L28.1186951,37.202184 C27.4038683,40.8061996 26.5230234,41.2976117 25.8622261,41.2976117 C24.3215663,41.2976117 24.21187,37.6935961 24.5966256,35.7822221 L21.1858897,35.7822221 C20.8001517,38.6218189 22.2314427,42.771848 25.4221311,42.771848 C26.9627909,42.771848 28.5587901,42.0074292 29.6043431,37.365988 C31.3650503,29.5020868 33.1264125,19.8912695 34.7224117,10.3350536 C35.4925778,5.69328552 36.2077321,4.87393841 38.2988381,4.49140206 L38.2988381,4.05491827 Z M0.659814987,0.0137976527 L0.384755637,0.505209742 C6.76809725,0.996621831 13.2061233,3.39940789 13.2061233,12.0277279 C13.2061233,17.8635326 10.9044659,22.0619508 6.87779354,23.2569683 L6.87779354,4.05429705 L2.97096842,4.05429705 L2.97096842,35.9460589 C2.97096842,40.6424283 2.25581412,41.4607945 5.68434189e-14,41.8433309 L5.68434189e-14,42.2801416 L2.97096842,42.2801416 L6.87779354,42.2801416 L9.51901819,42.2801416 L9.51901819,41.8433309 C7.20819221,41.4607945 6.87779354,40.6424283 6.87779354,35.9460589 L6.87779354,24.3467064 C12.1392859,23.6107326 17.3326684,18.452704 17.3326684,11.8093226 C17.3326684,1.16009891 5.17209812,-0.149679423 0.659814987,0.0137976527 M46.7182411,4.38233015 C48.149532,4.38233015 49.3594657,8.0958754 49.469162,11.371956 L53.6520288,11.371956 C52.3857735,6.40257985 50.3500068,3.2360289 46.8829492,3.2360289 C42.5363566,3.2360289 38.1340972,11.5903614 38.1340972,23.9318997 C38.1340972,35.2356856 42.4256779,42.7716518 46.3878424,42.7716518 C49.0293945,42.7716518 52.2210653,38.2394134 53.211279,31.0313821 L51.6706191,31.0313821 C50.9001255,37.5835433 48.7540077,40.8609318 46.9379611,40.8609318 C44.5721232,40.8609318 42.6463803,33.870325 42.6463803,23.494762 C42.6463803,12.6277869 44.4070876,4.38233015 46.7182411,4.38233015 M141.695678,4.05491827 L141.530642,4.05491827 L139.714923,4.05491827 L128.213513,4.05491827 L128.213513,4.92886671 L129.314078,4.98346805 C132.231016,5.14727208 132.450736,6.40310298 132.175677,15.3590311 C131.735582,28.573864 131.185136,40.0408 128.984006,40.0408 C127.993465,40.0408 127.773418,37.5840665 127.883114,35.1809535 L124.361699,35.1809535 C124.141979,36.8196477 124.252003,42.7169197 128.544894,42.7169197 C131.790921,42.7169197 132.6161,38.2938839 133.220903,32.3966119 C134.046736,23.9317689 134.376807,12.9013167 134.652194,5.47488014 L139.714923,5.47488014 L139.714923,35.9456992 C139.714923,40.6417417 138.999114,41.4610888 136.742972,41.8429712 L136.742972,42.2804359 L139.714923,42.2804359 L143.621748,42.2804359 L146.2633,42.2804359 L146.2633,41.8429712 C143.951819,41.4610888 143.621748,40.6417417 143.621748,35.9456992 L143.621748,10.3896549 C143.621748,5.69328552 143.951819,4.87393841 146.2633,4.49140206 L146.2633,4.05491827 L143.621748,4.05491827 L141.695678,4.05491827 Z M192.521373,35.9578292 L187.931812,19.1389807 C188.258608,18.4124886 188.535632,17.6157013 188.799231,16.7790257 C190.67029,10.7172957 191.000361,6.02092627 192.37664,6.02092627 C193.256175,6.02092627 193.311187,7.8227706 193.145824,10.3344324 L197.053631,10.3344324 C197.218667,6.129802 195.512316,3.61781326 193.476222,3.61781326 C191.826194,3.61781326 190.00982,4.38223207 189.019933,8.6421177 C188.193118,12.191532 187.479274,16.2866327 186.432738,18.5262686 C185.569248,20.3264782 184.331481,21.2517584 182.801627,21.4871654 L182.801627,10.3893607 C182.801627,5.69299126 183.131371,4.87364416 185.442525,4.4911078 L185.442525,4.05429705 L182.801627,4.05429705 L178.894475,4.05429705 L175.922524,4.05429705 L175.922524,4.4911078 C178.178993,4.87364416 178.894475,5.69299126 178.894475,10.3893607 L178.894475,35.9460589 C178.894475,40.6424283 178.178993,41.4607945 175.922524,41.8433309 L175.922524,42.2801416 L178.894475,42.2801416 L182.801627,42.2801416 L185.442525,42.2801416 L185.442525,41.8433309 C183.131371,41.4607945 182.801627,40.6424283 182.801627,35.9460589 L182.801627,22.9816729 C183.563935,22.9267446 184.222767,22.7724222 184.795153,22.5337457 L188.870615,37.1924081 C189.645039,40.6502752 188.967214,41.48597 187.424262,41.8433309 L187.424262,42.2801416 L190.284552,42.2801416 L194.246716,42.2801416 L196.227798,42.2801416 L196.227798,41.8433309 C194.809605,41.464391 193.878005,40.601886 192.521373,35.9578292 M91.5656856,41.7344552 C90.0554788,41.7344552 88.2024301,41.1469185 88.0059592,37.4778391 C87.993516,37.0184685 87.9892591,36.5103817 87.9892591,35.9457319 L87.9892591,22.837813 C92.4252461,23.9030297 95.9126057,26.7341257 95.9126057,34.1435606 C95.9126057,38.2399692 95.2524632,41.7344552 91.5656856,41.7344552 M88.2466361,21.9991756 C92.8984136,20.3866378 97.618956,16.2232036 97.618956,10.4985634 C97.618956,1.05089622 86.2829088,-0.150006377 82.2657325,0.0134706986 L82.045685,0.450935353 C87.7132174,0.887419145 93.4367441,3.01752544 93.4367441,10.6620404 C93.4367441,15.8514567 91.5247541,19.521844 87.9892591,21.4224285 L87.9892591,4.05495096 L84.0814517,4.05495096 L84.0814517,35.9457319 C84.0814517,40.6421013 83.3662974,41.4611215 81.1104833,41.8430039 L81.1104833,42.2804686 L84.0814517,42.2804686 L87.9892591,42.2804686 L88.1844203,42.2804686 C94.4989971,44.0254229 100.644936,41.2714881 100.644936,33.4886715 C100.644936,25.1277999 93.2907007,22.5925974 88.2466361,21.9991756 M232.161224,21.7594529 C227.075573,21.2899467 222.861926,18.3695922 222.861926,12.245414 C222.861926,7.49509715 224.67699,4.65550035 228.088381,4.43742193 C228.505554,4.40603433 229.010157,4.39361007 229.519672,4.48384942 L229.519672,4.49136936 C229.598915,4.50477448 229.676194,4.5181796 229.751508,4.53321949 C230.752855,4.77876206 231.725386,5.47811699 232.048908,7.29728989 C232.135683,8.07740249 232.161224,9.08311346 232.161224,10.3896222 L232.161224,21.7594529 Z M239.04,4.49136936 L239.04,4.05455862 L236.068049,4.05455862 L233.431736,4.05455862 C224.074807,1.91366283 218.238964,5.16293319 218.238964,12.7917544 C218.238964,17.8530047 221.266582,20.5265088 224.870514,21.7829936 C224.557143,28.6428186 221.779043,40.8028974 218.624702,44.792065 L219.394868,45.12 C224.125889,41.2596523 227.853271,30.4701653 229.134916,22.6582498 C230.194222,22.7471813 231.221765,22.7517587 232.161224,22.6909452 L232.161224,35.9463204 C232.161224,40.641709 231.830825,41.4610561 229.519672,41.8435925 L229.519672,42.2800762 L239.04,42.2800762 L239.04,41.8435925 C236.783204,41.4610561 236.068049,40.641709 236.068049,35.9463204 L236.068049,10.3896222 C236.068049,5.69325282 236.783204,4.87390572 239.04,4.49136936 Z M202.570045,30.8127806 L206.691678,11.4819434 L210.416113,30.8127806 L202.570045,30.8127806 Z M219.229473,41.8429058 C217.558814,41.4914301 216.634746,40.7243957 215.682844,36.7816556 L208.554223,3.56344079 L207.178599,3.56344079 L200.079775,35.6723002 C199.034222,40.4781992 198.208717,41.4610234 196.558361,41.8429058 L196.558361,42.2803705 L203.437136,42.2803705 L203.437136,41.8429058 C201.511066,41.4610234 200.464531,40.6966046 201.511066,35.7821567 L202.267807,32.2330694 L210.690517,32.2330694 L211.527156,36.5760014 C212.172563,40.4674097 211.302851,41.4871797 209.764484,41.8429058 L209.764484,42.2803705 L212.626083,42.2803705 L216.863307,42.2803705 L219.229473,42.2803705 L219.229473,41.8429058 Z M113.026405,41.1335461 C111.180888,41.1005238 110.243067,40.4018227 109.787909,38.731414 C109.785617,38.6833517 109.782015,38.6352895 109.779395,38.5855924 L109.779395,21.7523579 L110.385181,21.802055 C114.512053,22.129663 115.00716,23.8232855 115.392898,27.5907782 L116.493463,27.5907782 C115.502922,23.1134681 115.502922,19.2903932 116.493463,14.8121022 L115.392898,14.8121022 C115.00716,18.5259744 114.512053,20.2728904 110.385181,20.5462241 L109.779395,20.5864394 L109.779395,6.08536893 C114.442306,3.97324512 120.449733,7.03451684 121.225794,14.6486251 L122.326359,14.6486251 C121.996287,11.5909499 121.169799,7.82247634 120.895395,3.23563655 C116.382784,4.05498366 113.026405,4.05498366 108.458783,4.05498366 L105.87257,4.05498366 L102.62556,4.05498366 L102.62556,4.49146745 C105.102404,4.8733499 105.817231,5.69335091 105.817231,10.3890664 L105.87257,10.3890664 L105.87257,35.9457646 L105.817231,35.9457646 C105.817231,40.642134 105.102404,41.4614811 102.84659,41.8430366 L102.84659,42.2805013 L105.87257,42.2805013 L109.779395,42.2805013 L111.044996,42.2805013 L111.044996,42.2798474 C114.351275,42.2782126 117.127737,42.2697118 120.785044,42.2258999 C121.115442,39.1669169 122.545751,35.2362741 123.260905,31.9588857 L122.270364,31.6868598 C120.289937,36.1102225 117.538034,41.1881475 113.026405,41.1335461 M166.127923,4.05491827 L163.155972,4.05491827 L163.155972,4.49140206 C165.412768,4.87393841 166.127923,5.69328552 166.127923,10.3896549 L166.127923,13.2384065 L156.333518,30.7173754 L156.333518,10.3896549 C156.333518,5.69328552 156.662934,4.87393841 158.974087,4.49140206 L158.974087,4.05491827 L156.333518,4.05491827 L152.42571,4.05491827 L149.454742,4.05491827 L149.454742,4.49140206 C151.710556,4.87393841 152.42571,5.69328552 152.42571,10.3896549 L152.42571,35.9456992 C152.42571,40.6417417 151.710556,41.4610888 149.454742,41.8429712 L149.454742,42.2804359 L152.42571,42.2804359 L156.333518,42.2804359 L158.974087,42.2804359 L158.974087,41.8429712 C156.662934,41.4610888 156.333518,40.6417417 156.333518,35.9456992 L156.333518,33.7237188 L166.127923,16.3183146 L166.127923,35.9456992 C166.127923,40.6417417 165.412768,41.4610888 163.155972,41.8429712 L163.155972,42.2804359 L166.127923,42.2804359 L170.035403,42.2804359 L172.675972,42.2804359 L172.675972,41.8429712 C170.365146,41.4610888 170.035403,40.6417417 170.035403,35.9456992 L170.035403,10.3896549 C170.035403,5.69328552 170.365146,4.87393841 172.675972,4.49140206 L172.675972,4.05491827 L170.035403,4.05491827 L166.127923,4.05491827 Z" id="Combined-Shape"/>
                </g>
                <path d="M8.63231998,56.01792 L8.63231998,60.4416 L9.32351998,60.4416 L9.32351998,62.592 L8.03327998,62.592 L8.03327998,61.44 L2.87231998,61.44 L2.87231998,56.01792 L4.23167998,56.01792 L4.23167998,60.4416 L7.27295998,60.4416 L7.27295998,56.01792 L8.63231998,56.01792 Z M19.30752,61.44 L14.10048,61.44 L14.10048,56.01792 L19.15392,56.01792 L19.15392,56.99328 L15.45984,56.99328 L15.45984,58.2144 L19.03104,58.2144 L19.03104,59.18208 L15.45984,59.18208 L15.45984,60.47232 L19.30752,60.47232 L19.30752,61.44 Z M30.01344,61.44 L28.65408,61.44 L28.65408,59.11296 L25.3824,59.11296 L25.3824,61.44 L24.02304,61.44 L24.02304,56.01792 L25.3824,56.01792 L25.3824,58.10688 L28.65408,58.10688 L28.65408,56.01792 L30.01344,56.01792 L30.01344,61.44 Z M39.95136,57.01632 L37.9392,57.01632 L37.9392,61.44 L36.57984,61.44 L36.57984,57.01632 L34.56768,57.01632 L34.56768,56.01792 L39.95136,56.01792 L39.95136,57.01632 Z M44.48256,56.01792 L47.85408,56.01792 C48.54528,56.01792 49.25184,56.09472 49.63584,56.74752 C49.73568,56.9088 49.87392,57.23904 49.87392,57.7152 C49.87392,58.06848 49.78944,58.50624 49.51296,58.82112 C49.05216,59.34336 48.49152,59.39712 47.70816,59.39712 L45.81888,59.39712 L45.81888,61.44 L44.48256,61.44 L44.48256,56.01792 Z M45.81888,56.95488 L45.81888,58.4448 L47.48544,58.4448 C47.68512,58.4448 47.9616,58.4448 48.14592,58.368 C48.51456,58.2144 48.52224,57.84576 48.52224,57.7152 C48.52224,57.39264 48.36864,56.95488 47.808,56.95488 L45.81888,56.95488 Z M60.52608,61.44 L59.00544,61.44 L58.54464,60.41856 L55.76448,60.41856 L55.30368,61.44 L53.82144,61.44 L56.44032,56.01792 L57.9072,56.01792 L60.52608,61.44 Z M58.10688,59.45856 L57.16224,57.33888 L56.20224,59.45856 L58.10688,59.45856 Z M70.848,61.44 L69.48864,61.44 L69.48864,57.01632 L66.9312,57.01632 L66.9312,57.63072 C66.92352,60.48768 66.67776,61.44 64.61184,61.44 L64.45824,61.44 L64.45824,60.4416 L64.61184,60.4416 C65.57184,60.4416 65.64096,59.8656 65.64096,57.32352 L65.64096,56.01792 L70.848,56.01792 L70.848,61.44 Z M75.87072,61.44 L75.87072,56.01792 L77.23008,56.01792 L77.23008,58.0608 L79.24992,58.0608 C80.03328,58.0608 80.59392,58.11456 81.05472,58.6368 C81.3312,58.95168 81.41568,59.38944 81.41568,59.74272 C81.41568,60.21888 81.27744,60.54912 81.1776,60.7104 C80.7936,61.3632 80.08704,61.44 79.39584,61.44 L75.87072,61.44 Z M77.23008,60.49536 L79.34976,60.49536 C79.9104,60.49536 80.05632,60.0576 80.05632,59.73504 C80.05632,59.38944 79.92576,59.1744 79.68768,59.08224 C79.50336,59.01312 79.22688,59.00544 79.0272,59.00544 L77.23008,59.00544 L77.23008,60.49536 Z M92.09088,61.44 L90.73152,61.44 L90.73152,59.11296 L87.45984,59.11296 L87.45984,61.44 L86.10048,61.44 L86.10048,56.01792 L87.45984,56.01792 L87.45984,58.10688 L90.73152,58.10688 L90.73152,56.01792 L92.09088,56.01792 L92.09088,61.44 Z M97.14432,61.44 L97.14432,56.01792 L98.50368,56.01792 L98.50368,58.0608 L100.36992,58.0608 C101.15328,58.0608 101.71392,58.11456 102.17472,58.6368 C102.4512,58.95168 102.53568,59.38944 102.53568,59.74272 C102.53568,60.21888 102.39744,60.54912 102.2976,60.7104 C101.9136,61.3632 101.20704,61.44 100.51584,61.44 L97.14432,61.44 Z M98.50368,60.49536 L100.46976,60.49536 C101.0304,60.49536 101.17632,60.0576 101.17632,59.73504 C101.17632,59.4048 101.0304,59.1744 100.80768,59.08224 C100.62336,59.00544 100.34688,59.00544 100.1472,59.00544 L98.50368,59.00544 L98.50368,60.49536 Z M104.5632,61.44 L103.20384,61.44 L103.20384,56.01792 L104.5632,56.01792 L104.5632,61.44 Z M109.58592,61.44 L109.58592,56.01792 L110.87616,56.01792 L110.87616,59.48928 L114.33216,56.63232 L114.33216,56.01792 L115.6224,56.01792 L115.6224,61.44 L114.33216,61.44 L114.33216,57.93792 L110.87616,60.79488 L110.87616,61.44 L109.58592,61.44 Z M110.83776,54.82752 L111.75936,54.57408 C111.82848,54.74304 112.2048,54.94272 112.60416,54.94272 C113.0496,54.94272 113.37984,54.74304 113.44896,54.57408 L114.37056,54.82752 C114.20928,55.43424 113.55648,55.74912 112.60416,55.74912 C111.63648,55.74912 111.03744,55.40352 110.83776,54.82752 Z M133.26336,60.4416 L133.95456,60.4416 L133.95456,62.592 L132.66432,62.592 L132.66432,61.44 L128.16384,61.44 L128.16384,62.592 L126.8736,62.592 L126.8736,60.4416 C127.67232,60.4416 128.05632,59.43552 128.05632,57.09312 L128.05632,56.01792 L133.26336,56.01792 L133.26336,60.4416 Z M129.34656,57.01632 L129.34656,57.4848 C129.34656,59.2512 129.03168,60.1344 128.69376,60.4416 L131.904,60.4416 L131.904,57.01632 L129.34656,57.01632 Z M138.24768,58.72896 C138.24768,56.63232 139.86816,55.84896 141.5424,55.84896 C143.21664,55.84896 144.89856,56.54016 144.89856,58.6752 C144.89856,60.46464 143.7312,61.61664 141.58848,61.61664 C139.44576,61.61664 138.24768,60.45696 138.24768,58.72896 Z M139.64544,58.76736 C139.64544,59.64288 140.17536,60.64128 141.57312,60.64128 C143.35488,60.64128 143.51616,59.11296 143.51616,58.73664 C143.51616,57.76896 142.87872,56.82432 141.57312,56.82432 C140.22912,56.82432 139.64544,57.8304 139.64544,58.76736 Z M156.95616,61.44 L155.66592,61.44 C155.66592,61.16352 155.69664,57.26976 155.69664,57.26976 L153.95328,61.44 L152.7168,61.44 L150.95808,57.26976 C150.95808,57.26976 150.9888,61.23264 150.9888,61.44 L149.69856,61.44 L149.69856,56.01792 L151.66464,56.01792 L153.34656,59.99616 L155.01312,56.01792 L156.95616,56.01792 L156.95616,61.44 Z M174.49728,61.44 L173.13792,61.44 L173.13792,57.01632 L170.09664,57.01632 L170.09664,61.44 L168.73728,61.44 L168.73728,56.01792 L174.49728,56.01792 L174.49728,61.44 Z M179.26656,58.72896 C179.26656,56.63232 180.88704,55.84896 182.56128,55.84896 C184.23552,55.84896 185.91744,56.54016 185.91744,58.6752 C185.91744,60.46464 184.75008,61.61664 182.60736,61.61664 C180.46464,61.61664 179.26656,60.45696 179.26656,58.72896 Z M180.66432,58.76736 C180.66432,59.64288 181.19424,60.64128 182.592,60.64128 C184.37376,60.64128 184.53504,59.11296 184.53504,58.73664 C184.53504,57.76896 183.8976,56.82432 182.592,56.82432 C181.248,56.82432 180.66432,57.8304 180.66432,58.76736 Z M196.61568,60.4416 L197.30688,60.4416 L197.30688,62.592 L196.01664,62.592 L196.01664,61.44 L191.51616,61.44 L191.51616,62.592 L190.22592,62.592 L190.22592,60.4416 C191.02464,60.4416 191.40864,59.43552 191.40864,57.09312 L191.40864,56.01792 L196.61568,56.01792 L196.61568,60.4416 Z M192.69888,57.01632 L192.69888,57.4848 C192.69888,59.2512 192.384,60.1344 192.04608,60.4416 L195.25632,60.4416 L195.25632,57.01632 L192.69888,57.01632 Z M208.2048,61.44 L206.68416,61.44 L206.22336,60.41856 L203.4432,60.41856 L202.9824,61.44 L201.50016,61.44 L204.11904,56.01792 L205.58592,56.01792 L208.2048,61.44 Z M205.7856,59.45856 L204.84096,57.33888 L203.88096,59.45856 L205.7856,59.45856 Z M212.64384,56.01792 L216.01536,56.01792 C216.70656,56.01792 217.41312,56.09472 217.79712,56.74752 C217.89696,56.9088 218.0352,57.23904 218.0352,57.7152 C218.0352,58.06848 217.95072,58.50624 217.67424,58.82112 C217.21344,59.34336 216.6528,59.39712 215.86944,59.39712 L213.98016,59.39712 L213.98016,61.44 L212.64384,61.44 L212.64384,56.01792 Z M213.98016,56.95488 L213.98016,58.4448 L215.64672,58.4448 C215.8464,58.4448 216.12288,58.4448 216.3072,58.368 C216.67584,58.2144 216.68352,57.84576 216.68352,57.7152 C216.68352,57.39264 216.52992,56.95488 215.96928,56.95488 L213.98016,56.95488 Z M222.5664,56.01792 L223.92576,56.01792 L223.92576,58.0608 L225.45408,58.0608 C226.3296,58.0608 226.51392,57.46944 226.69056,56.90112 C226.75968,56.68608 226.85952,56.36352 227.0976,56.01792 L228.50304,56.01792 C228.1344,56.45568 228.00384,56.93184 227.904,57.22368 C227.74272,57.69984 227.61984,58.29888 226.93632,58.49088 C227.85792,58.65984 228.0192,59.4816 228.15744,60.096 C228.24192,60.45696 228.33408,60.80256 228.73344,61.44 L227.328,61.44 C227.01312,60.98688 226.93632,60.65664 226.85952,60.31872 C226.7136,59.69664 226.59072,59.0592 225.54624,59.0592 L223.92576,59.0592 L223.92576,61.44 L222.5664,61.44 L222.5664,56.01792 Z M239.43936,61.44 L237.91872,61.44 L237.45792,60.41856 L234.67776,60.41856 L234.21696,61.44 L232.73472,61.44 L235.3536,56.01792 L236.82048,56.01792 L239.43936,61.44 Z M237.02016,59.45856 L236.07552,57.33888 L235.11552,59.45856 L237.02016,59.45856 Z" id="ЦЕНТРАЛЬНЫЙ-ДОМ-ПОДА" opacity="0.400000006"/>
            </g>
        </g>
    </g>
</svg>