<svg width="144" height="26" viewBox="0 0 144 26" fill="none" xmlns="http://www.w3.org/2000/svg">
<path fill-rule="evenodd" clip-rule="evenodd" d="M39.2152 24.1435C39.0556 24.1492 38.874 24.1531 38.6846 24.1377V24.1118C37.2925 23.8914 37.0939 23.4197 37.0939 20.7136V12.1781C39.6993 12.4918 41.9335 14.9699 41.9335 19.612C41.9335 21.6573 41.403 24.0176 39.2152 24.1435ZM37.0939 11.7293V2.33682H34.74V20.7136C34.74 23.4197 34.309 23.8914 32.9503 24.1118V24.3639H34.74H36.3684C40.787 25.3683 44.6515 23.7526 44.6515 19.3919C44.6515 14.2856 39.9228 11.8164 37.0939 11.7293ZM23.0716 2.33661H18.7952V2.58813C19.8953 2.77126 20.1742 3.14863 19.991 4.78059C19.313 8.90401 18.5749 13.0527 17.8539 16.8196L15.0127 5.98657L15.0163 5.98695C14.3864 3.28071 14.7845 2.80856 15.7787 2.58813V2.33661H14.055H11.5023H9.94433V2.58813C11.0336 2.80762 11.6958 3.21476 12.5194 5.88973L16.9518 21.3739L16.939 21.4374C16.5084 23.5142 15.9777 23.7974 15.5797 23.7974C14.6515 23.7974 14.5855 21.7206 14.8172 20.6192H12.7626C12.5302 22.2555 13.3924 24.6469 15.3145 24.6469C16.2426 24.6469 17.2041 24.2064 17.8339 21.5318C18.8946 17.0003 19.9557 11.4622 20.9171 5.95548C21.3811 3.28071 21.8119 2.80856 23.0716 2.58813V2.33661ZM0.397479 0.00795077L0.231781 0.291123C4.07717 0.574295 7.9555 1.95888 7.9555 6.93087C7.9555 10.2937 6.56896 12.713 4.14325 13.4016V2.33625H1.78974V20.7136C1.78974 23.4198 1.35892 23.8914 0 24.1118V24.3636H1.78974H4.14325H5.73435V24.1118C4.34228 23.8914 4.14325 23.4198 4.14325 20.7136V14.0296C7.31282 13.6055 10.4414 10.6332 10.4414 6.80502C10.4414 0.668497 3.11572 -0.0862514 0.397479 0.00795077ZM28.1435 2.52528C29.0057 2.52528 29.7346 4.66518 29.8007 6.55299H32.3205C31.5577 3.68943 30.3313 1.86473 28.2427 1.86473C25.6243 1.86473 22.9723 6.67884 22.9723 13.7905C22.9723 20.3043 25.5576 24.6468 27.9445 24.6468C29.5358 24.6468 31.4585 22.0351 32.055 17.8816H31.1269C30.6627 21.6572 29.3699 23.5457 28.2759 23.5457C26.8507 23.5457 25.6906 19.5175 25.6906 13.5386C25.6906 7.27665 26.7513 2.52528 28.1435 2.52528ZM85.3588 2.33661H85.2594H84.1656H77.2371V2.84022L77.9 2.87168C79.6572 2.96607 79.7896 3.68973 79.6239 8.8505C79.3588 16.4654 79.0272 23.0732 77.7012 23.0732C77.1045 23.0732 76.9719 21.6575 77.038 20.2727H74.9167C74.7843 21.217 74.8506 24.6152 77.4367 24.6152C79.3921 24.6152 79.8892 22.0665 80.2536 18.6683C80.751 13.7905 80.9499 7.43427 81.1158 3.15485H84.1656V20.7134C84.1656 23.4194 83.7344 23.8916 82.3753 24.1116V24.3637H84.1656H86.5191H88.1104V24.1116C86.718 23.8916 86.5191 23.4194 86.5191 20.7134V5.98695C86.5191 3.28071 86.718 2.80856 88.1104 2.58813V2.33661H86.5191H85.3588ZM115.977 20.7204L113.212 11.0287C113.409 10.61 113.576 10.1509 113.734 9.66877C114.862 6.17575 115.06 3.46951 115.89 3.46951C116.419 3.46951 116.453 4.5078 116.353 5.95513H118.707C118.806 3.53224 117.779 2.08473 116.552 2.08473C115.558 2.08473 114.464 2.52522 113.867 4.97994C113.369 7.02526 112.939 9.38503 112.309 10.6756C111.789 11.713 111.043 12.2461 110.121 12.3818V5.98678C110.121 3.28054 110.32 2.80839 111.712 2.58796V2.33625H110.121H107.768H105.977V2.58796C107.337 2.80839 107.768 3.28054 107.768 5.98678V20.7136C107.768 23.4198 107.337 23.8914 105.977 24.1118V24.3636H107.768H110.121H111.712V24.1118C110.32 23.8914 110.121 23.4198 110.121 20.7136V13.243C110.581 13.2113 110.978 13.1224 111.322 12.9849L113.777 21.4318C114.244 23.4244 113.836 23.9059 112.906 24.1118V24.3636H114.629H117.016H118.21V24.1118C117.355 23.8935 116.794 23.3965 115.977 20.7204ZM55.1601 24.0491C54.2503 24.0491 53.134 23.7105 53.0156 21.5963C53.0081 21.3316 53.0056 21.0388 53.0056 20.7134V13.1601C55.6779 13.7739 57.7787 15.4053 57.7787 19.6749C57.7787 22.0354 57.381 24.0491 55.1601 24.0491ZM53.1606 12.6768C55.9629 11.7476 58.8066 9.34848 58.8066 6.0497C58.8066 0.60557 51.9777 -0.0864398 49.5577 0.00776237L49.4251 0.259847C52.8393 0.511367 56.2872 1.73882 56.2872 6.14391C56.2872 9.13426 55.1354 11.2493 53.0056 12.3445V2.33663H50.6515V20.7134C50.6515 23.4197 50.2207 23.8916 48.8617 24.1117V24.3637H50.6515H53.0056H53.1231C56.9271 25.3693 60.6295 23.7823 60.6295 19.2976C60.6295 14.4797 56.1992 13.0188 53.1606 12.6768ZM139.856 12.5387C136.793 12.2681 134.254 10.5853 134.254 7.05631C134.254 4.31898 135.348 2.68269 137.403 2.55702C137.654 2.53894 137.958 2.53178 138.265 2.58378V2.58811C138.313 2.59584 138.359 2.60356 138.405 2.61223C139.008 2.75372 139.594 3.15672 139.788 4.205C139.841 4.65453 139.856 5.23406 139.856 5.98693V12.5387ZM144 2.58811V2.3364H142.21H140.622C134.985 1.10273 131.469 2.97509 131.469 7.37114C131.469 10.2876 133.293 11.8282 135.464 12.5523C135.275 16.5052 133.602 23.5123 131.702 25.811L132.166 26C135.016 23.7755 137.261 17.5582 138.033 13.0566C138.671 13.1079 139.29 13.1105 139.856 13.0755V20.7137C139.856 23.4194 139.657 23.8916 138.265 24.112V24.3635H144V24.112C142.64 23.8916 142.21 23.4194 142.21 20.7137V5.98693C142.21 3.28069 142.64 2.80854 144 2.58811ZM122.03 17.7556L124.513 6.61637L126.757 17.7556H122.03ZM132.066 24.1116C131.06 23.9091 130.503 23.4671 129.929 21.1951L125.635 2.0534H124.806L120.53 20.5558C119.9 23.3252 119.403 23.8915 118.409 24.1116V24.3637H122.552V24.1116C121.392 23.8915 120.762 23.4511 121.392 20.6192L121.848 18.574H126.922L127.426 21.0766C127.815 23.319 127.291 23.9066 126.364 24.1116V24.3637H128.088H130.641H132.066V24.1116ZM68.0882 23.7028C66.9764 23.6838 66.4115 23.2812 66.1373 22.3186C66.1359 22.2909 66.1338 22.2632 66.1322 22.2346V12.5346L66.4971 12.5632C68.9832 12.752 69.2814 13.728 69.5138 15.8989H70.1768C69.5801 13.3189 69.5801 11.1159 70.1768 8.53534H69.5138C69.2814 10.6754 68.9832 11.6821 66.4971 11.8396L66.1322 11.8628V3.50664C68.9412 2.28955 72.5601 4.05358 73.0276 8.44114H73.6906C73.4917 6.67918 72.9939 4.50763 72.8286 1.86451C70.1101 2.33665 68.0882 2.33665 65.3366 2.33665H63.7787H61.8226V2.58817C63.3147 2.80822 63.7453 3.28074 63.7453 5.98661H63.7787V20.7134H63.7453C63.7453 23.4197 63.3147 23.8918 61.9558 24.1117V24.3638H63.7787H66.1322H66.8946C68.8863 24.3628 70.5589 24.3575 72.7621 24.3323C72.9611 22.5696 73.8227 20.3046 74.2536 18.416L73.6568 18.2593C72.4638 20.8082 70.806 23.7343 68.0882 23.7028ZM100.077 2.33661H98.2867V2.58813C99.6462 2.80856 100.077 3.28071 100.077 5.98695V7.62851L94.1768 17.7006V5.98695C94.1768 3.28071 94.3753 2.80856 95.7675 2.58813V2.33661H94.1768H91.8227H90.033V2.58813C91.3919 2.80856 91.8227 3.28071 91.8227 5.98695V20.7134C91.8227 23.4194 91.3919 23.8916 90.033 24.1116V24.3637H91.8227H94.1768H95.7675V24.1116C94.3753 23.8916 94.1768 23.4194 94.1768 20.7134V19.433L100.077 9.40329V20.7134C100.077 23.4194 99.6462 23.8916 98.2867 24.1116V24.3637H100.077H102.431H104.022V24.1116C102.63 23.8916 102.431 23.4194 102.431 20.7134V5.98695C102.431 3.28071 102.63 2.80856 104.022 2.58813V2.33661H102.431H100.077Z" fill="#757575"/>
</svg>
