<svg width="65" height="20" viewBox="0 0 65 20" fill="none" xmlns="http://www.w3.org/2000/svg">
<path d="M32.3641 8.50475C31.9156 8.33223 31.329 8.28051 30.6907 8.28051H27.1368V7.17641H33.244V5.27881H24.6353V13.4904H30.4664C31.2773 13.4904 31.881 13.4214 32.3296 13.2488C33.2785 12.8865 33.9168 12.0067 33.9168 10.8509C33.9168 9.67792 33.313 8.86705 32.3641 8.50475ZM31.122 11.3512C30.984 11.403 30.7942 11.4202 30.5526 11.4202H27.1368V10.1091H30.5526C30.8287 10.1091 31.0529 10.1265 31.2255 10.2127C31.4325 10.3162 31.536 10.506 31.536 10.7474C31.536 10.9889 31.4153 11.2477 31.122 11.3512Z" fill="#7B7B7B"/>
<path d="M40.9308 5.27881H37.2734L33.9093 13.4904H36.7387L37.2044 12.3H40.9998L41.4829 13.4904H44.295L40.9308 5.27881ZM37.8254 10.4886L39.0159 7.17641H39.2056L40.396 10.4886H37.8254Z" fill="#7B7B7B"/>
<path d="M47.5147 10.437V13.4904H45.0133V5.27881H47.5147V8.28053H51.5344V5.27881H54.036V13.4904H51.5344V10.437H47.5147Z" fill="#7B7B7B"/>
<path d="M57.9961 10.3852V13.4904H55.4945V5.27881H57.9961V8.3668H58.6861L61.7052 5.27881H64.8449L60.8426 9.21209L65.0003 13.4904H61.6707L58.6861 10.3852H57.9961Z" fill="#7B7B7B"/>
<path d="M0 0H19.9429V10.0295C19.9429 12.6006 18.5712 14.9765 16.3446 16.2622L9.97146 19.9422L3.59829 16.2622C1.37164 14.9765 0 12.6006 0 10.0295V0Z" fill="#FFDD2D"/>
<path fill-rule="evenodd" clip-rule="evenodd" d="M5.4729 5.27881V8.39819C5.89948 7.9165 6.67507 7.5905 7.56186 7.5905H8.52555V11.2167C8.52555 12.1815 8.26341 13.0259 7.87447 13.4904H12.0663C11.6782 13.0255 11.4167 12.1821 11.4167 11.2186V7.5905H12.3804C13.2672 7.5905 14.0428 7.9165 14.4694 8.39819V5.27881H5.4729Z" fill="#333333"/>
</svg>
