<svg width="224" height="58" viewBox="0 0 224 58" fill="none" xmlns="http://www.w3.org/2000/svg">
<path opacity="0.4" fill-rule="evenodd" clip-rule="evenodd" d="M7.24502 51.7362V55.8663H7.89035V57.874H6.68574V56.7985H1.86728V51.7362H3.13642V55.8663H5.97588V51.7362H7.24502ZM17.2118 56.7985H12.3503V51.7362H17.0684V52.6468H13.6194V53.7869H16.9537V54.6904H13.6194V55.895H17.2118V56.7985ZM27.2072 56.7985H25.9381V54.6258H22.8835V56.7985H21.6144V51.7362H22.8835V53.6865H25.9381V51.7362H27.2072V56.7985ZM36.4856 52.6683H34.607V56.7985H33.3379V52.6683H31.4592V51.7362H36.4856V52.6683ZM40.7161 51.7362H43.8639C44.5092 51.7362 45.1689 51.8079 45.5274 52.4174C45.6206 52.568 45.7497 52.8763 45.7497 53.3208C45.7497 53.6507 45.6708 54.0594 45.4127 54.3534C44.9825 54.841 44.4591 54.8912 43.7277 54.8912H41.9638V56.7985H40.7161V51.7362ZM41.9638 52.611V54.002H43.5197C43.7062 54.002 43.9643 54.002 44.1364 53.9303C44.4806 53.7869 44.4877 53.4427 44.4877 53.3208C44.4877 53.0197 44.3443 52.611 43.8209 52.611H41.9638ZM55.695 56.7985H54.2752L53.845 55.8448H51.2494L50.8191 56.7985H49.4353L51.8803 51.7362H53.2499L55.695 56.7985ZM53.4363 54.9485L52.5544 52.9695L51.6581 54.9485H53.4363ZM65.3319 56.7985H64.0627V52.6683H61.675V53.242C61.6678 55.9093 61.4384 56.7985 59.5096 56.7985H59.3662V55.8663H59.5096C60.4059 55.8663 60.4704 55.3285 60.4704 52.9552V51.7362H65.3319V56.7985ZM70.0213 56.7985V51.7362H71.2904V53.6435H73.1762C73.9076 53.6435 74.431 53.6937 74.8613 54.1813C75.1194 54.4753 75.1983 54.884 75.1983 55.2138C75.1983 55.6584 75.0692 55.9667 74.976 56.1173C74.6175 56.7268 73.9578 56.7985 73.3125 56.7985H70.0213ZM71.2904 55.9165H73.2694C73.7929 55.9165 73.9291 55.5078 73.9291 55.2066C73.9291 54.884 73.8072 54.6832 73.5849 54.5972C73.4129 54.5326 73.1547 54.5255 72.9683 54.5255H71.2904V55.9165ZM85.165 56.7985H83.8959V54.6258H80.8413V56.7985H79.5722V51.7362H80.8413V53.6865H83.8959V51.7362H85.165V56.7985ZM89.8831 56.7985V51.7362H91.1522V53.6435H92.8946C93.626 53.6435 94.1494 53.6937 94.5797 54.1813C94.8378 54.4753 94.9167 54.884 94.9167 55.2138C94.9167 55.6584 94.7876 55.9667 94.6944 56.1173C94.3359 56.7268 93.6762 56.7985 93.0309 56.7985H89.8831ZM91.1522 55.9165H92.9879C93.5113 55.9165 93.6475 55.5078 93.6475 55.2066C93.6475 54.8983 93.5113 54.6832 93.3033 54.5972C93.1313 54.5255 92.8731 54.5255 92.6867 54.5255H91.1522V55.9165ZM96.8096 56.7985H95.5405V51.7362H96.8096V56.7985ZM101.499 56.7985V51.7362H102.704V54.9772L105.93 52.3098V51.7362H107.135V56.7985H105.93V53.5288L102.704 56.1962V56.7985H101.499ZM102.668 50.6248L103.528 50.3882C103.593 50.5459 103.944 50.7324 104.317 50.7324C104.733 50.7324 105.041 50.5459 105.106 50.3882L105.966 50.6248C105.816 51.1913 105.206 51.4852 104.317 51.4852C103.414 51.4852 102.854 51.1626 102.668 50.6248ZM123.605 55.8663H124.251V57.874H123.046V56.7985H118.844V57.874H117.639V55.8663C118.385 55.8663 118.744 54.927 118.744 52.7401V51.7362H123.605V55.8663ZM119.948 52.6683V53.1057C119.948 54.7549 119.654 55.5795 119.339 55.8663H122.336V52.6683H119.948ZM128.259 54.2673C128.259 52.3098 129.772 51.5785 131.335 51.5785C132.898 51.5785 134.468 52.2238 134.468 54.2171C134.468 55.8878 133.378 56.9634 131.378 56.9634C129.377 56.9634 128.259 55.8807 128.259 54.2673ZM129.564 54.3032C129.564 55.1206 130.058 56.0527 131.363 56.0527C133.027 56.0527 133.178 54.6258 133.178 54.2745C133.178 53.371 132.582 52.4891 131.363 52.4891C130.109 52.4891 129.564 53.4284 129.564 54.3032ZM145.726 56.7985H144.521C144.521 56.5403 144.55 52.905 144.55 52.905L142.922 56.7985H141.768L140.126 52.905C140.126 52.905 140.154 56.6049 140.154 56.7985H138.95V51.7362H140.785L142.356 55.4504L143.912 51.7362H145.726V56.7985ZM162.103 56.7985H160.834V52.6683H157.994V56.7985H156.725V51.7362H162.103V56.7985ZM166.555 54.2673C166.555 52.3098 168.068 51.5785 169.632 51.5785C171.195 51.5785 172.765 52.2238 172.765 54.2171C172.765 55.8878 171.675 56.9634 169.675 56.9634C167.674 56.9634 166.555 55.8807 166.555 54.2673ZM167.86 54.3032C167.86 55.1206 168.355 56.0527 169.66 56.0527C171.324 56.0527 171.474 54.6258 171.474 54.2745C171.474 53.371 170.879 52.4891 169.66 52.4891C168.405 52.4891 167.86 53.4284 167.86 54.3032ZM182.753 55.8663H183.399V57.874H182.194V56.7985H177.992V57.874H176.788V55.8663C177.533 55.8663 177.892 54.927 177.892 52.7401V51.7362H182.753V55.8663ZM179.096 52.6683V53.1057C179.096 54.7549 178.802 55.5795 178.487 55.8663H181.484V52.6683H179.096ZM193.573 56.7985H192.154L191.723 55.8448H189.128L188.697 56.7985H187.314L189.759 51.7362H191.128L193.573 56.7985ZM191.315 54.9485L190.433 52.9695L189.536 54.9485H191.315ZM197.718 51.7362H200.866C201.511 51.7362 202.171 51.8079 202.529 52.4174C202.622 52.568 202.751 52.8763 202.751 53.3208C202.751 53.6507 202.672 54.0594 202.414 54.3534C201.984 54.841 201.461 54.8912 200.729 54.8912H198.965V56.7985H197.718V51.7362ZM198.965 52.611V54.002H200.521C200.708 54.002 200.966 54.002 201.138 53.9303C201.482 53.7869 201.489 53.4427 201.489 53.3208C201.489 53.0197 201.346 52.611 200.822 52.611H198.965ZM206.982 51.7362H208.251V53.6435H209.678C210.495 53.6435 210.667 53.0914 210.832 52.5608C210.897 52.36 210.99 52.0589 211.212 51.7362H212.524C212.18 52.1449 212.058 52.5895 211.965 52.8619C211.815 53.3065 211.7 53.8658 211.062 54.0451C211.922 54.2028 212.073 54.97 212.202 55.5437C212.281 55.8807 212.367 56.2033 212.74 56.7985H211.427C211.133 56.3754 211.062 56.0671 210.99 55.7516C210.854 55.1708 210.739 54.5757 209.764 54.5757H208.251V56.7985H206.982V51.7362ZM222.735 56.7985H221.315L220.885 55.8448H218.289L217.859 56.7985H216.475L218.92 51.7362H220.29L222.735 56.7985ZM220.476 54.9485L219.594 52.9695L218.698 54.9485H220.476Z" fill="#000"/>
<path fill-rule="evenodd" clip-rule="evenodd" d="M60.7772 39.1178C60.5299 39.1269 60.2483 39.1333 59.9548 39.1083V39.0665C57.7974 38.7093 57.4895 37.945 57.4895 33.5606V19.7312C61.5275 20.2395 64.9901 24.2545 64.9901 31.7757C64.9901 35.0896 64.168 38.9139 60.7772 39.1178ZM57.4895 19.0041V3.78616H53.8413V33.5606C53.8413 37.945 53.1733 38.7093 51.0675 39.0665V39.4749H53.8413H56.3651C63.2132 41.1022 69.2026 38.4844 69.2026 31.4192C69.2026 23.1458 61.8738 19.1451 57.4895 19.0041ZM35.7572 3.78582H29.1295V4.19334C30.8345 4.49005 31.2668 5.10148 30.9828 7.74561C29.932 14.4265 28.788 21.1482 27.6706 27.2515L23.2673 9.69956L23.2728 9.70017C22.2966 5.31546 22.9136 4.55049 24.4544 4.19334V3.78582H21.783H17.8267H15.4121V4.19334C17.1003 4.54896 18.1266 5.20862 19.403 9.54265L26.2725 34.6305L26.2527 34.7333C25.5853 38.0982 24.7629 38.557 24.1459 38.557C22.7075 38.557 22.6051 35.1921 22.9643 33.4076H19.7799C19.4198 36.0588 20.7561 39.9334 23.735 39.9334C25.1735 39.9334 26.6635 39.2197 27.6397 34.8863C29.2836 27.5442 30.928 18.5712 32.4181 9.64919C33.1372 5.31546 33.8049 4.55049 35.7572 4.19334V3.78582ZM0.616028 0.012882L0.359222 0.471682C6.31895 0.930483 12.3297 3.17381 12.3297 11.2295C12.3297 16.6781 10.1808 20.5979 6.42136 21.7136V3.78524H2.77381V33.5606C2.77381 37.9453 2.10611 38.7093 0 39.0665V39.4743H2.77381H6.42136H8.88731V39.0665C6.72983 38.7093 6.42136 37.9453 6.42136 33.5606V22.731C11.3337 22.0439 16.1824 17.2281 16.1824 11.0256C16.1824 1.08311 4.82886 -0.139746 0.616028 0.012882ZM43.6179 4.09151C44.9542 4.09151 46.0838 7.55861 46.1862 10.6173H50.0915C48.9093 5.97768 47.0086 3.02128 43.7717 3.02128C39.7135 3.02128 35.6034 10.8212 35.6034 22.3437C35.6034 32.8973 39.6102 39.9332 43.3094 39.9332C45.7757 39.9332 48.7555 35.7017 49.68 28.972H48.2416C47.5222 35.0894 45.5185 38.1493 43.823 38.1493C41.6142 38.1493 39.8162 31.6226 39.8162 21.9356C39.8162 11.7898 41.4601 4.09151 43.6179 4.09151ZM132.292 3.78582H132.138H130.443H119.705V4.60177L120.732 4.65275C123.456 4.80568 123.661 5.97817 123.404 14.3398C122.993 26.6776 122.479 37.3836 120.424 37.3836C119.499 37.3836 119.294 35.0899 119.396 32.8462H116.109C115.904 34.3762 116.006 39.8821 120.014 39.8821C123.045 39.8821 123.815 35.7526 124.38 30.2467C125.151 22.3436 125.459 12.0451 125.716 5.11155H130.443V33.5602C130.443 37.9446 129.775 38.7096 127.668 39.0661V39.4746H130.443H134.091H136.557V39.0661C134.399 38.7096 134.091 37.9446 134.091 33.5602V9.70017C134.091 5.31546 134.399 4.55049 136.557 4.19334V3.78582H134.091H132.292ZM179.745 33.5716L175.46 17.8689C175.765 17.1906 176.024 16.4467 176.27 15.6655C178.017 10.0061 178.325 5.62136 179.61 5.62136C180.431 5.62136 180.482 7.30363 180.328 9.64861H183.977C184.131 5.72301 182.538 3.37772 180.637 3.37772C179.096 3.37772 177.4 4.09141 176.476 8.0686C175.704 11.3825 175.038 15.2058 174.061 17.2968C173.254 18.9776 172.099 19.8414 170.67 20.0612V9.69989C170.67 5.31519 170.978 4.55021 173.136 4.19306V3.78524H170.67H167.022H164.248V4.19306C166.355 4.55021 167.022 5.31519 167.022 9.69989V33.5606C167.022 37.9453 166.355 38.7093 164.248 39.0665V39.4743H167.022H170.67H173.136V39.0665C170.978 38.7093 170.67 37.9453 170.67 33.5606V21.4565C171.382 21.4053 171.997 21.2612 172.532 21.0383L176.337 34.7242C177.06 37.9526 176.427 38.7328 174.986 39.0665V39.4743H177.657H181.356H183.206V39.0665C181.881 38.7127 181.012 37.9074 179.745 33.5716ZM85.4891 38.9648C84.0791 38.9648 82.349 38.4163 82.1656 34.9907C82.154 34.5618 82.15 34.0874 82.15 33.5603V21.3222C86.2916 22.3168 89.5476 24.96 89.5476 31.8777C89.5476 35.7023 88.9312 38.9648 85.4891 38.9648ZM82.3903 20.5392C86.7334 19.0337 91.1407 15.1466 91.1407 9.80185C91.1407 0.981156 80.5569 -0.140051 76.8063 0.0125767L76.6009 0.42101C81.8923 0.828527 87.236 2.81727 87.236 9.95448C87.236 14.7995 85.4509 18.2263 82.15 20.0008V3.78585H78.5015V33.5603C78.5015 37.945 77.8339 38.7096 75.7277 39.0662V39.4746H78.5015H82.15H82.3322C88.2278 41.1038 93.9658 38.5326 93.9658 31.2663C93.9658 23.4602 87.0996 21.0933 82.3903 20.5392ZM216.754 20.3154C212.006 19.8771 208.072 17.1505 208.072 11.4328C208.072 6.9977 209.767 4.34655 212.952 4.14294C213.341 4.11364 213.812 4.10204 214.288 4.18629V4.19331C214.362 4.20582 214.434 4.21834 214.505 4.23238C215.439 4.46163 216.347 5.11457 216.649 6.81302C216.73 7.54136 216.754 8.48033 216.754 9.70014V20.3154ZM223.177 4.19331V3.78549H220.402H217.94C209.205 1.78667 203.756 4.82031 203.756 11.9429C203.756 16.6682 206.583 19.1643 209.947 20.3374C209.655 26.742 207.061 38.0951 204.116 41.8195L204.835 42.1257C209.252 38.5215 212.732 28.4481 213.929 21.1546C214.918 21.2376 215.877 21.2419 216.754 21.1851V33.5608C216.754 37.9446 216.446 38.7096 214.288 39.0667V39.4742H223.177V39.0667C221.07 38.7096 220.402 37.9446 220.402 33.5608V9.70014C220.402 5.31543 221.07 4.55046 223.177 4.19331ZM189.127 28.768L192.975 10.72L196.452 28.768H189.127ZM204.681 39.0661C203.121 38.7379 202.258 38.0218 201.369 34.3407L194.714 3.32696H193.43L186.802 33.305C185.826 37.7919 185.055 38.7095 183.514 39.0661V39.4745H189.936V39.0661C188.138 38.7095 187.161 37.9959 188.138 33.4075L188.845 30.094H196.708L197.49 34.1487C198.092 37.7819 197.28 38.734 195.844 39.0661V39.4745H198.516H202.472H204.681V39.0661ZM105.526 38.4038C103.803 38.373 102.927 37.7206 102.502 36.1611C102.5 36.1162 102.497 36.0713 102.494 36.0249V20.3088L103.06 20.3552C106.913 20.6611 107.375 22.2423 107.735 25.7598H108.763C107.838 21.5796 107.838 18.0102 108.763 13.8291H107.735C107.375 17.2965 106.913 18.9275 103.06 19.1827L102.494 19.2203V5.68153C106.848 3.70957 112.456 6.56769 113.181 13.6765H114.208C113.9 10.8217 113.129 7.30335 112.872 3.02091C108.659 3.78588 105.526 3.78588 101.261 3.78588H98.8465H95.815V4.1934C98.1275 4.54994 98.7949 5.31552 98.7949 9.69962H98.8465V33.5603H98.7949C98.7949 37.945 98.1275 38.71 96.0214 39.0662V39.4746H98.8465H102.494H103.676C106.763 39.4731 109.355 39.4646 112.769 39.4237C113.078 36.5677 114.413 32.8979 115.081 29.838L114.156 29.584C112.307 33.7138 109.738 38.4548 105.526 38.4038ZM155.103 3.78582H152.328V4.19334C154.435 4.55049 155.103 5.31546 155.103 9.70017V12.3599L145.959 28.6789V9.70017C145.959 5.31546 146.266 4.55049 148.424 4.19334V3.78582H145.959H142.31H139.536V4.19334C141.643 4.55049 142.31 5.31546 142.31 9.70017V33.5602C142.31 37.9446 141.643 38.7096 139.536 39.0661V39.4746H142.31H145.959H148.424V39.0661C146.266 38.7096 145.959 37.9446 145.959 33.5602V31.4857L155.103 15.2354V33.5602C155.103 37.9446 154.435 38.7096 152.328 39.0661V39.4746H155.103H158.751H161.217V39.0661C159.059 38.7096 158.751 37.9446 158.751 33.5602V9.70017C158.751 5.31546 159.059 4.55049 161.217 4.19334V3.78582H158.751H155.103Z" fill="#000"/>
</svg>
