<svg width="223" height="8" viewBox="0 0 223 8" fill="none" xmlns="http://www.w3.org/2000/svg">
<path opacity="0.4" fill-rule="evenodd" clip-rule="evenodd" d="M5.42967 1.44061V5.85441H6.08123V8H4.86498V6.85057H0V1.44061H1.2814V5.85441H4.14827V1.44061H5.42967ZM15.4926 6.85057H10.5842V1.44061H15.3479V2.41379H11.8656V3.63218H15.232V4.5977H11.8656V5.88506H15.4926V6.85057ZM25.5846 6.85057H24.3032V4.52874H21.2191V6.85057H19.9377V1.44061H21.2191V3.5249H24.3032V1.44061H25.5846V6.85057ZM34.9526 2.43678H33.0558V6.85057H31.7744V2.43678H29.8776V1.44061H34.9526V2.43678ZM39.2239 1.44061H42.4021C43.0536 1.44061 43.7197 1.51724 44.0816 2.16858C44.1758 2.3295 44.3061 2.659 44.3061 3.1341C44.3061 3.48659 44.2264 3.92337 43.9658 4.23755C43.5314 4.75862 43.003 4.81226 42.2645 4.81226H40.4836V6.85057H39.2239V1.44061ZM40.4836 2.37548V3.86207H42.0546C42.2428 3.86207 42.5034 3.86207 42.6772 3.78544C43.0247 3.63218 43.0319 3.26437 43.0319 3.1341C43.0319 2.81226 42.8871 2.37548 42.3586 2.37548H40.4836ZM54.3473 6.85057H52.9139L52.4795 5.83142H49.8588L49.4244 6.85057H48.0272L50.4959 1.44061H51.8786L54.3473 6.85057ZM52.0669 4.87356L51.1764 2.75862L50.2715 4.87356H52.0669ZM64.0773 6.85057H62.7959V2.43678H60.3851V3.04981C60.3779 5.90038 60.1462 6.85057 58.1988 6.85057H58.054V5.85441H58.1988C59.1037 5.85441 59.1689 5.27969 59.1689 2.7433V1.44061H64.0773V6.85057ZM68.812 6.85057V1.44061H70.0934V3.47893H71.9974C72.7358 3.47893 73.2643 3.53257 73.6987 4.05364C73.9593 4.36782 74.0389 4.8046 74.0389 5.15709C74.0389 5.63219 73.9086 5.96169 73.8145 6.12261C73.4525 6.77395 72.7865 6.85057 72.1349 6.85057H68.812ZM70.0934 5.90805H72.0915C72.62 5.90805 72.7575 5.47126 72.7575 5.14942C72.7575 4.8046 72.6345 4.59004 72.41 4.49809C72.2363 4.42912 71.9756 4.42146 71.7874 4.42146H70.0934V5.90805ZM84.1019 6.85057H82.8205V4.52874H79.7365V6.85057H78.455V1.44061H79.7365V3.5249H82.8205V1.44061H84.1019V6.85057ZM88.8655 6.85057V1.44061H90.1469V3.47893H91.9061C92.6446 3.47893 93.1731 3.53257 93.6074 4.05364C93.8681 4.36782 93.9477 4.8046 93.9477 5.15709C93.9477 5.63219 93.8174 5.96169 93.7233 6.12261C93.3613 6.77395 92.6953 6.85057 92.0437 6.85057H88.8655ZM90.1469 5.90805H92.0003C92.5287 5.90805 92.6663 5.47126 92.6663 5.14942C92.6663 4.81992 92.5287 4.59004 92.3188 4.49809C92.145 4.42146 91.8844 4.42146 91.6962 4.42146H90.1469V5.90805ZM95.8589 6.85057H94.5775V1.44061H95.8589V6.85057ZM100.594 6.85057V1.44061H101.81V4.90422L105.068 2.05364V1.44061H106.284V6.85057H105.068V3.35632L101.81 6.2069V6.85057H100.594ZM101.774 0.252871L102.642 0C102.708 0.168582 103.062 0.367813 103.439 0.367813C103.859 0.367813 104.17 0.168582 104.235 0L105.104 0.252871C104.952 0.858235 104.336 1.17241 103.439 1.17241C102.527 1.17241 101.962 0.827583 101.774 0.252871ZM122.913 5.85441H123.565V8H122.348V6.85057H118.106V8H116.89V5.85441C117.643 5.85441 118.005 4.85058 118.005 2.51341V1.44061H122.913V5.85441ZM119.221 2.43678V2.90421C119.221 4.66667 118.924 5.54789 118.606 5.85441H121.632V2.43678H119.221ZM127.612 4.14559C127.612 2.05364 129.139 1.27203 130.717 1.27203C132.296 1.27203 133.881 1.96169 133.881 4.09196C133.881 5.8774 132.781 7.02682 130.761 7.02682C128.741 7.02682 127.612 5.86973 127.612 4.14559ZM128.929 4.18391C128.929 5.05747 129.429 6.05364 130.746 6.05364C132.426 6.05364 132.578 4.52874 132.578 4.15326C132.578 3.18774 131.977 2.24521 130.746 2.24521C129.479 2.24521 128.929 3.24904 128.929 4.18391ZM145.247 6.85057H144.031C144.031 6.57471 144.06 2.68965 144.06 2.68965L142.417 6.85057H141.251L139.593 2.68965C139.593 2.68965 139.622 6.64368 139.622 6.85057H138.406V1.44061H140.259L141.845 5.40996L143.416 1.44061H145.247V6.85057ZM161.782 6.85057H160.501V2.43678H157.634V6.85057H156.353V1.44061H161.782V6.85057ZM166.278 4.14559C166.278 2.05364 167.806 1.27203 169.384 1.27203C170.962 1.27203 172.548 1.96169 172.548 4.09196C172.548 5.8774 171.447 7.02682 169.427 7.02682C167.407 7.02682 166.278 5.86973 166.278 4.14559ZM167.596 4.18391C167.596 5.05747 168.095 6.05364 169.413 6.05364C171.092 6.05364 171.244 4.52874 171.244 4.15326C171.244 3.18774 170.644 2.24521 169.413 2.24521C168.146 2.24521 167.596 3.24904 167.596 4.18391ZM182.632 5.85441H183.284V8H182.068V6.85057H177.825V8H176.609V5.85441C177.362 5.85441 177.724 4.85058 177.724 2.51341V1.44061H182.632V5.85441ZM178.94 2.43678V2.90421C178.94 4.66667 178.643 5.54789 178.325 5.85441H181.351V2.43678H178.94ZM193.557 6.85057H192.123L191.689 5.83142H189.068L188.634 6.85057H187.237L189.705 1.44061H191.088L193.557 6.85057ZM191.276 4.87356L190.386 2.75862L189.481 4.87356H191.276ZM197.741 1.44061H200.919C201.571 1.44061 202.237 1.51724 202.599 2.16858C202.693 2.3295 202.823 2.659 202.823 3.1341C202.823 3.48659 202.744 3.92337 202.483 4.23755C202.049 4.75862 201.52 4.81226 200.782 4.81226H199.001V6.85057H197.741V1.44061ZM199.001 2.37548V3.86207H200.572C200.76 3.86207 201.021 3.86207 201.194 3.78544C201.542 3.63218 201.549 3.26437 201.549 3.1341C201.549 2.81226 201.404 2.37548 200.876 2.37548H199.001ZM207.095 1.44061H208.376V3.47893H209.817C210.642 3.47893 210.816 2.88889 210.982 2.32184C211.048 2.10728 211.142 1.78544 211.366 1.44061H212.691C212.343 1.8774 212.22 2.35249 212.126 2.64368C211.974 3.11877 211.858 3.71647 211.214 3.90804C212.083 4.07663 212.235 4.89655 212.365 5.50958C212.445 5.86973 212.532 6.21456 212.908 6.85057H211.583C211.286 6.39847 211.214 6.06897 211.142 5.7318C211.004 5.11111 210.888 4.4751 209.904 4.4751H208.376V6.85057H207.095V1.44061ZM223 6.85057H221.567L221.132 5.83142H218.511L218.077 6.85057H216.68L219.149 1.44061H220.531L223 6.85057ZM220.72 4.87356L219.829 2.75862L218.924 4.87356H220.72Z" fill="white"/>
</svg>
