<?xml version="1.0" encoding="utf-8"?>
<!-- Generator: Adobe Illustrator 27.9.0, SVG Export Plug-In . SVG Version: 6.00 Build 0)  -->
<svg version="1.1" id="Слой_1" xmlns="http://www.w3.org/2000/svg" xmlns:xlink="http://www.w3.org/1999/xlink" x="0px" y="0px"
	 viewBox="0 0 160 50" style="enable-background:new 0 0 160 50;" xml:space="preserve">
<style type="text/css">
	.st0{fill-rule:evenodd;clip-rule:evenodd;}
	.st1{fill:#7C7C7C;}
</style>
<path class="st0" d="M43.6,27.9c-0.2,0-0.4,0-0.6,0v0c-1.5-0.3-1.8-0.8-1.8-3.9v-9.8c2.9,0.4,5.4,3.2,5.4,8.6
	C46.6,25,46,27.7,43.6,27.9z M41.2,13.5V2.7h-2.6v21.2c0,3.1-0.5,3.7-2,3.9v0.3h2h1.8c4.9,1.2,9.2-0.7,9.2-5.7
	C49.6,16.5,44.4,13.6,41.2,13.5z M25.6,2.7h-4.8V3c1.2,0.2,1.5,0.6,1.3,2.5c-0.8,4.8-1.6,9.5-2.4,13.9L16.7,6.9l0,0
	C16,3.8,16.4,3.2,17.5,3V2.7h-1.9h-2.8H11V3c1.2,0.3,1.9,0.7,2.9,3.8l4.9,17.9l0,0.1c-0.5,2.4-1.1,2.7-1.5,2.7c-1,0-1.1-2.4-0.8-3.7
	h-2.3c-0.3,1.9,0.7,4.6,2.8,4.6c1,0,2.1-0.5,2.8-3.6c1.2-5.2,2.4-11.6,3.4-18c0.5-3.1,1-3.6,2.4-3.9V2.7z M0.4,0L0.3,0.3
	C4.5,0.7,8.8,2.3,8.8,8c0,3.9-1.5,6.7-4.2,7.5V2.7H2v21.2c0,3.1-0.5,3.7-2,3.9v0.3h2h2.6h1.8v-0.3c-1.5-0.3-1.8-0.8-1.8-3.9v-7.7
	c3.5-0.5,7-3.9,7-8.3C11.6,0.8,3.5-0.1,0.4,0z M31.3,2.9c1,0,1.8,2.5,1.8,4.6h2.8c-0.8-3.3-2.2-5.4-4.5-5.4c-2.9,0-5.9,5.6-5.9,13.8
	c0,7.5,2.9,12.5,5.5,12.5c1.8,0,3.9-3,4.6-7.8h-1c-0.5,4.4-2,6.5-3.2,6.5c-1.6,0-2.9-4.6-2.9-11.5C28.5,8.4,29.7,2.9,31.3,2.9z
	 M94.8,2.7h-0.1h-1.2h-7.7v0.6l0.7,0c2,0.1,2.1,0.9,1.9,6.9c-0.3,8.8-0.7,16.4-2.1,16.4c-0.7,0-0.8-1.6-0.7-3.2h-2.4
	c-0.1,1.1-0.1,5,2.8,5c2.2,0,2.7-2.9,3.1-6.9c0.6-5.6,0.8-13,1-17.9h3.4v20.3c0,3.1-0.5,3.7-2,3.9v0.3h2h2.6h1.8v-0.3
	c-1.5-0.3-1.8-0.8-1.8-3.9v-17c0-3.1,0.2-3.7,1.8-3.9V2.7h-1.8H94.8z M128.9,23.9l-3.1-11.2c0.2-0.5,0.4-1,0.6-1.6
	c1.3-4,1.5-7.2,2.4-7.2c0.6,0,0.6,1.2,0.5,2.9h2.6c0.1-2.8-1-4.5-2.4-4.5c-1.1,0-2.3,0.5-3,3.3c-0.6,2.4-1,5.1-1.7,6.6
	c-0.6,1.2-1.4,1.8-2.4,2V6.9c0-3.1,0.2-3.7,1.8-3.9V2.7h-1.8h-2.6h-2V3c1.5,0.3,2,0.8,2,3.9v17c0,3.1-0.5,3.7-2,3.9v0.3h2h2.6h1.8
	v-0.3c-1.5-0.3-1.8-0.8-1.8-3.9v-8.6c0.5,0,1-0.1,1.3-0.3l2.7,9.7c0.5,2.3,0.1,2.9-1,3.1v0.3h1.9h2.7h1.3v-0.3
	C130.4,27.6,129.8,27,128.9,23.9z M61.3,27.7c-1,0-2.3-0.4-2.4-2.8c0-0.3,0-0.6,0-1v-8.7c3,0.7,5.3,2.6,5.3,7.5
	C64.2,25.4,63.8,27.7,61.3,27.7z M59.1,14.6c3.1-1.1,6.3-3.8,6.3-7.6c0-6.3-7.6-7.1-10.3-7l-0.1,0.3c3.8,0.3,7.6,1.7,7.6,6.8
	c0,3.5-1.3,5.9-3.6,7.2V2.7h-2.6v21.2c0,3.1-0.5,3.7-2,3.9v0.3h2h2.6H59c4.2,1.2,8.3-0.7,8.3-5.8C67.4,16.7,62.4,15,59.1,14.6z
	 M155.4,14.5c-3.4-0.3-6.2-2.3-6.2-6.3c0-3.2,1.2-5,3.5-5.2c0.3,0,0.6,0,1,0v0c0.1,0,0.1,0,0.2,0c0.7,0.2,1.3,0.6,1.5,1.8
	c0.1,0.5,0.1,1.2,0.1,2.1V14.5z M160,3V2.7h-2h-1.8c-6.3-1.4-10.2,0.7-10.2,5.8c0,3.4,2,5.1,4.4,6c-0.2,4.6-2.1,12.6-4.2,15.3
	l0.5,0.2c3.2-2.6,5.7-9.7,6.5-14.9c0.7,0.1,1.4,0.1,2,0v8.8c0,3.1-0.2,3.7-1.8,3.9v0.3h6.4v-0.3c-1.5-0.3-2-0.8-2-3.9v-17
	C158,3.8,158.5,3.2,160,3z M135.6,20.5l2.8-12.9l2.5,12.9H135.6z M146.7,27.8c-1.1-0.2-1.7-0.7-2.4-3.4l-4.8-22.1h-0.9l-4.8,21.3
	c-0.7,3.2-1.3,3.8-2.4,4.1v0.3h4.6v-0.3c-1.3-0.3-2-0.8-1.3-4l0.5-2.4h5.6l0.6,2.9c0.4,2.6-0.1,3.3-1.2,3.5v0.3h1.9h2.8h1.6V27.8z
	 M75.7,27.3c-1.2,0-1.9-0.5-2.2-1.6c0,0,0-0.1,0-0.1V14.5l0.4,0c2.8,0.2,3.1,1.3,3.4,3.8H78c-0.7-3-0.7-5.5,0-8.5h-0.7
	c-0.3,2.5-0.6,3.6-3.4,3.8l-0.4,0V4c3.1-1.4,7.1,0.6,7.7,5.7h0.7c-0.2-2-0.8-4.5-1-7.6c-3,0.5-5.3,0.5-8.3,0.5h-1.7h-2.2V3
	c1.7,0.3,2.1,0.8,2.1,3.9h0v17h0c0,3.1-0.5,3.7-2,3.9v0.3h2h2.6h0.8c2.2,0,4.1,0,6.5,0c0.2-2,1.2-4.6,1.7-6.8l-0.7-0.2
	C80.5,24,78.7,27.4,75.7,27.3z M111.2,2.7h-2V3c1.5,0.3,2,0.8,2,3.9v1.9l-6.6,11.6V6.9c0-3.1,0.2-3.7,1.8-3.9V2.7h-1.8H102h-2V3
	c1.5,0.3,2,0.8,2,3.9v17c0,3.1-0.5,3.7-2,3.9v0.3h2h2.6h1.8v-0.3c-1.5-0.3-1.8-0.8-1.8-3.9v-1.5l6.6-11.6v13.1c0,3.1-0.5,3.7-2,3.9
	v0.3h2h2.6h1.8v-0.3c-1.5-0.3-1.8-0.8-1.8-3.9v-17c0-3.1,0.2-3.7,1.8-3.9V2.7h-1.8H111.2z"/>
<path class="st1" d="M9.5,41.9c0-0.8,0.3-1.4,0.8-1.8c0.5-0.4,1.2-0.6,2.2-0.6h3.3V47h-1.2v-2.6c-0.5,0.1-1,0.2-1.5,0.2
	c-0.2,0-0.3,0-0.4,0L11.2,47H9.7l1.7-2.7c-0.6-0.2-1-0.5-1.3-0.9C9.7,43,9.5,42.5,9.5,41.9z M10.8,42c0,1,0.8,1.5,2.3,1.5
	c0.5,0,1,0,1.4-0.1v-2.9h-2c-0.5,0-0.9,0.1-1.2,0.4C11,41.1,10.8,41.5,10.8,42z M17.7,47v-6h1.2v2.5h3V41h1.2v6h-1.2v-2.5h-3V47
	H17.7z M24.2,42v-1h5.1v1h-1.9v5h-1.2v-5H24.2z M29.7,45.2c0-0.4,0.1-0.7,0.2-0.9c0.1-0.3,0.3-0.5,0.6-0.6c0.2-0.2,0.5-0.3,0.8-0.3
	c0.3-0.1,0.6-0.1,0.9-0.1c0.2,0,0.5,0,0.8,0.1c0.3,0.1,0.6,0.2,0.9,0.3V43c0-0.8-0.6-1.1-1.7-1.1c-0.8,0-1.4,0.1-1.9,0.4v-1.1
	c0.7-0.2,1.4-0.4,2-0.4c0.3,0,0.6,0,0.9,0.1c0.3,0,0.5,0.1,0.8,0.2c0.2,0.1,0.5,0.2,0.6,0.4c0.2,0.2,0.3,0.4,0.4,0.7
	c0.1,0.3,0.2,0.6,0.2,1V47h-0.8l-0.1-0.9c-0.3,0.4-0.6,0.7-1,0.8c-0.4,0.2-0.8,0.2-1.3,0.2c-0.3,0-0.5,0-0.8-0.1
	c-0.3-0.1-0.5-0.2-0.7-0.4c-0.2-0.2-0.4-0.4-0.5-0.6C29.8,45.8,29.7,45.5,29.7,45.2z M31,45.1c0,0.7,0.4,1.1,1.3,1.1
	c0.3,0,0.6-0.1,1-0.3c0.3-0.2,0.6-0.5,0.8-0.8v-0.5c-0.5-0.3-1-0.5-1.6-0.5C31.5,44.1,31,44.4,31,45.1z M36.8,49.3V41h1v1.1
	c0.6-0.8,1.4-1.3,2.5-1.3c0.4,0,0.8,0.1,1.2,0.2c0.4,0.2,0.6,0.4,0.8,0.7c0.2,0.3,0.4,0.6,0.5,1C43,43,43,43.4,43,43.9
	c0,0.4-0.1,0.9-0.2,1.3c-0.1,0.4-0.3,0.8-0.5,1.1s-0.5,0.5-0.9,0.7c-0.4,0.2-0.8,0.3-1.2,0.3c-0.8,0-1.5-0.2-2.1-0.7v2.8H36.8z
	 M38,45.4c0.5,0.4,1.1,0.6,1.9,0.6c0.3,0,0.6-0.1,0.8-0.2c0.2-0.1,0.4-0.3,0.6-0.5c0.1-0.2,0.2-0.4,0.3-0.7c0.1-0.3,0.1-0.5,0.1-0.8
	c0-0.6-0.2-1.1-0.5-1.4c-0.3-0.4-0.8-0.5-1.4-0.5c-0.4,0-0.7,0.1-1,0.3c-0.3,0.2-0.6,0.4-0.8,0.8V45.4z M44.2,47v-6h1.2v2.5h3V41
	h1.2v6h-1.2v-2.5h-3V47H44.2z M50.9,44c0-0.9,0.3-1.7,0.9-2.3c0.6-0.6,1.3-0.9,2.3-0.9c0.5,0,1,0.1,1.4,0.3c0.4,0.2,0.7,0.4,1,0.7
	c0.3,0.3,0.4,0.6,0.6,1c0.1,0.4,0.2,0.8,0.2,1.2c0,0.9-0.3,1.7-0.9,2.3c-0.6,0.6-1.3,0.9-2.3,0.9c-0.5,0-1-0.1-1.4-0.3
	c-0.4-0.2-0.7-0.4-1-0.7c-0.3-0.3-0.4-0.6-0.6-1C51,44.9,50.9,44.5,50.9,44z M52.2,44c0,0.3,0,0.6,0.1,0.8s0.2,0.5,0.3,0.7
	c0.1,0.2,0.3,0.4,0.6,0.5s0.5,0.2,0.9,0.2c0.3,0,0.5,0,0.7-0.1c0.2-0.1,0.4-0.2,0.5-0.3c0.1-0.1,0.3-0.3,0.4-0.5
	c0.1-0.2,0.2-0.4,0.2-0.6c0-0.2,0.1-0.4,0.1-0.6c0-0.3,0-0.6-0.1-0.8c-0.1-0.3-0.2-0.5-0.3-0.7c-0.1-0.2-0.3-0.4-0.6-0.5
	c-0.2-0.1-0.5-0.2-0.9-0.2c-0.3,0-0.6,0.1-0.9,0.2c-0.3,0.1-0.5,0.3-0.6,0.5c-0.1,0.2-0.2,0.4-0.3,0.7C52.2,43.4,52.2,43.7,52.2,44z
	 M58.2,44c0-0.5,0.1-0.9,0.3-1.3c0.2-0.4,0.4-0.7,0.7-1c0.3-0.3,0.6-0.5,1-0.6c0.4-0.1,0.8-0.2,1.2-0.2c0.5,0,0.9,0.1,1.3,0.2
	c0.4,0.2,0.7,0.4,0.9,0.6c0.2,0.3,0.4,0.6,0.5,0.9c0.1,0.3,0.2,0.7,0.2,1.1c0,0.2,0,0.5-0.1,0.9h-4.6c0,0.3,0.1,0.6,0.3,0.8
	c0.1,0.2,0.3,0.4,0.5,0.5c0.2,0.1,0.4,0.2,0.7,0.3c0.2,0.1,0.5,0.1,0.8,0.1c0.7,0,1.3-0.1,1.9-0.4v1c-0.2,0.1-0.6,0.2-1,0.3
	c-0.4,0.1-0.8,0.1-1.1,0.1c-0.6,0-1.1-0.1-1.5-0.2c-0.4-0.2-0.8-0.4-1.1-0.7c-0.3-0.3-0.5-0.6-0.6-1C58.3,44.9,58.2,44.4,58.2,44z
	 M59.5,43.6h3.5c0-0.6-0.2-1-0.5-1.3s-0.7-0.5-1.2-0.5c-0.5,0-1,0.2-1.3,0.5C59.7,42.6,59.5,43.1,59.5,43.6z M69,47v-6h5.4v6h-1.2
	v-5h-2.9v5H69z M76,49.3V41h1v1.1c0.6-0.8,1.4-1.3,2.5-1.3c0.4,0,0.8,0.1,1.2,0.2c0.4,0.2,0.6,0.4,0.8,0.7c0.2,0.3,0.4,0.6,0.5,1
	c0.1,0.4,0.2,0.8,0.2,1.2c0,0.4-0.1,0.9-0.2,1.3c-0.1,0.4-0.3,0.8-0.5,1.1c-0.2,0.3-0.5,0.5-0.9,0.7c-0.4,0.2-0.8,0.3-1.2,0.3
	c-0.8,0-1.5-0.2-2.1-0.7v2.8H76z M77.2,45.4c0.5,0.4,1.1,0.6,1.9,0.6c0.3,0,0.6-0.1,0.8-0.2c0.2-0.1,0.4-0.3,0.6-0.5
	c0.1-0.2,0.2-0.4,0.3-0.7c0.1-0.3,0.1-0.5,0.1-0.8c0-0.6-0.2-1.1-0.5-1.4c-0.3-0.4-0.8-0.5-1.4-0.5c-0.4,0-0.7,0.1-1,0.3
	c-0.3,0.2-0.6,0.4-0.8,0.8V45.4z M83.2,44c0-0.9,0.3-1.7,0.9-2.3c0.6-0.6,1.3-0.9,2.3-0.9c0.5,0,1,0.1,1.4,0.3
	c0.4,0.2,0.7,0.4,1,0.7c0.3,0.3,0.4,0.6,0.6,1c0.1,0.4,0.2,0.8,0.2,1.2c0,0.9-0.3,1.7-0.9,2.3c-0.6,0.6-1.3,0.9-2.3,0.9
	c-0.5,0-1-0.1-1.4-0.3c-0.4-0.2-0.7-0.4-1-0.7c-0.3-0.3-0.4-0.6-0.6-1C83.3,44.9,83.2,44.5,83.2,44z M84.5,44c0,0.3,0,0.6,0.1,0.8
	c0.1,0.3,0.2,0.5,0.3,0.7c0.1,0.2,0.3,0.4,0.6,0.5s0.5,0.2,0.9,0.2c0.3,0,0.5,0,0.7-0.1c0.2-0.1,0.4-0.2,0.5-0.3
	c0.1-0.1,0.3-0.3,0.4-0.5c0.1-0.2,0.2-0.4,0.2-0.6c0-0.2,0.1-0.4,0.1-0.6c0-0.3,0-0.6-0.1-0.8c-0.1-0.3-0.2-0.5-0.3-0.7
	c-0.1-0.2-0.3-0.4-0.6-0.5c-0.2-0.1-0.5-0.2-0.9-0.2c-0.3,0-0.6,0.1-0.9,0.2c-0.3,0.1-0.5,0.3-0.6,0.5c-0.1,0.2-0.2,0.4-0.3,0.7
	C84.5,43.4,84.5,43.7,84.5,44z M90.8,47v-6h1.2v3.8l3.9-3.8h0.4v6h-1.2v-3.8L91.3,47H90.8z M97.8,46.9v-1.1c0.6,0.2,1.2,0.3,1.9,0.3
	c1.1,0,1.6-0.3,1.6-0.9c0-0.6-0.4-0.8-1.3-0.8h-1.5v-0.9h1.5c0.8,0,1.1-0.3,1.1-0.8c0-0.6-0.5-0.8-1.5-0.8c-0.5,0-1.1,0.1-1.8,0.3
	v-1.1c0.2-0.1,0.6-0.1,1.1-0.2c0.5,0,0.9-0.1,1.2-0.1c0.7,0,1.2,0.1,1.7,0.4c0.4,0.3,0.6,0.7,0.6,1.2c0,0.3-0.1,0.6-0.3,0.9
	c-0.2,0.3-0.4,0.5-0.8,0.6c0.4,0.1,0.7,0.3,0.9,0.6c0.2,0.3,0.3,0.6,0.3,1c0,0.3-0.1,0.6-0.2,0.8c-0.1,0.2-0.3,0.4-0.6,0.6
	c-0.2,0.1-0.5,0.2-0.8,0.3c-0.3,0.1-0.6,0.1-0.9,0.1c-0.4,0-0.8,0-1.3-0.1C98.4,47.1,98.1,47,97.8,46.9z M103.9,47v-6
	c0.7,0,1.6-0.1,2.8-0.1c0.3,0,0.5,0,0.7,0c0.2,0,0.4,0.1,0.6,0.1c0.2,0.1,0.4,0.1,0.5,0.3c0.1,0.1,0.3,0.2,0.3,0.4
	c0.1,0.2,0.1,0.4,0.1,0.6c0,0.7-0.3,1.1-1,1.5c0.8,0.3,1.2,0.8,1.2,1.5c0,0.2,0,0.5-0.1,0.7c-0.1,0.2-0.3,0.4-0.5,0.5
	c-0.2,0.2-0.5,0.3-0.9,0.4c-0.4,0.1-0.8,0.1-1.3,0.1C105.4,47.1,104.5,47.1,103.9,47z M105.1,46.1h1.6c0.4,0,0.7-0.1,0.9-0.2
	c0.2-0.1,0.3-0.4,0.3-0.6c0-0.5-0.4-0.8-1.3-0.8h-1.6V46.1z M105.1,43.5h1.5c0.4,0,0.7-0.1,0.9-0.2c0.2-0.2,0.3-0.4,0.3-0.6
	c0-0.3-0.1-0.4-0.3-0.6c-0.2-0.1-0.5-0.2-1-0.2h-1.4V43.5z M110.2,44c0-0.9,0.3-1.7,0.9-2.3c0.6-0.6,1.3-0.9,2.3-0.9
	c0.5,0,1,0.1,1.4,0.3c0.4,0.2,0.7,0.4,1,0.7c0.3,0.3,0.4,0.6,0.6,1c0.1,0.4,0.2,0.8,0.2,1.2c0,0.9-0.3,1.7-0.9,2.3
	c-0.6,0.6-1.3,0.9-2.3,0.9c-0.5,0-1-0.1-1.4-0.3c-0.4-0.2-0.7-0.4-1-0.7c-0.3-0.3-0.4-0.6-0.6-1C110.3,44.9,110.2,44.5,110.2,44z
	 M111.5,44c0,0.3,0,0.6,0.1,0.8c0.1,0.3,0.2,0.5,0.3,0.7c0.1,0.2,0.3,0.4,0.6,0.5s0.5,0.2,0.9,0.2c0.3,0,0.5,0,0.7-0.1
	c0.2-0.1,0.4-0.2,0.5-0.3c0.1-0.1,0.3-0.3,0.4-0.5c0.1-0.2,0.2-0.4,0.2-0.6c0-0.2,0.1-0.4,0.1-0.6c0-0.3,0-0.6-0.1-0.8
	c-0.1-0.3-0.2-0.5-0.3-0.7c-0.1-0.2-0.3-0.4-0.6-0.5c-0.2-0.1-0.5-0.2-0.9-0.2c-0.3,0-0.6,0.1-0.9,0.2c-0.3,0.1-0.5,0.3-0.6,0.5
	c-0.1,0.2-0.2,0.4-0.3,0.7C111.5,43.4,111.5,43.7,111.5,44z M117,46h0.7c0.3-0.6,0.5-1.3,0.6-2c0.1-0.8,0.2-1.6,0.2-2.6V41h4.6V46
	h0.9v2.4h-1.1V47h-4.8v1.4H117V46z M118.9,46h3V42h-2.3v0.4C119.6,43.8,119.3,45,118.9,46z M124.9,44c0-1,0.3-1.8,0.9-2.3
	c0.6-0.6,1.4-0.9,2.4-0.9c0.6,0,1.1,0.1,1.6,0.3v1c-0.5-0.2-0.9-0.2-1.4-0.2c-0.7,0-1.2,0.2-1.6,0.5c-0.4,0.4-0.5,0.9-0.5,1.6
	c0,0.7,0.2,1.2,0.6,1.6s0.9,0.6,1.5,0.6c0.6,0,1.1-0.1,1.5-0.3v1c-0.5,0.2-1.1,0.3-1.7,0.3c-0.6,0-1.1-0.1-1.6-0.4
	c-0.5-0.2-0.9-0.6-1.1-1.1C125,45.3,124.9,44.7,124.9,44z M130.8,42v-1h5.1v1h-1.9v5h-1.2v-5H130.8z M137,47v-6
	c0.7,0,1.6-0.1,2.8-0.1c0.3,0,0.5,0,0.7,0c0.2,0,0.4,0.1,0.6,0.1c0.2,0.1,0.4,0.1,0.5,0.3c0.1,0.1,0.3,0.2,0.3,0.4
	c0.1,0.2,0.1,0.4,0.1,0.6c0,0.7-0.3,1.1-1,1.5c0.8,0.3,1.2,0.8,1.2,1.5c0,0.2,0,0.5-0.1,0.7c-0.1,0.2-0.3,0.4-0.5,0.5
	c-0.2,0.2-0.5,0.3-0.9,0.4c-0.4,0.1-0.8,0.1-1.3,0.1C138.5,47.1,137.6,47.1,137,47z M138.2,46.1h1.6c0.4,0,0.7-0.1,0.9-0.2
	c0.2-0.1,0.3-0.4,0.3-0.6c0-0.5-0.4-0.8-1.3-0.8h-1.6V46.1z M138.2,43.5h1.5c0.4,0,0.7-0.1,0.9-0.2c0.2-0.2,0.3-0.4,0.3-0.6
	c0-0.3-0.1-0.4-0.3-0.6c-0.2-0.1-0.5-0.2-1-0.2h-1.4V43.5z M143.3,44c0-0.9,0.3-1.7,0.9-2.3c0.6-0.6,1.3-0.9,2.3-0.9
	c0.5,0,1,0.1,1.4,0.3c0.4,0.2,0.7,0.4,1,0.7c0.3,0.3,0.4,0.6,0.6,1c0.1,0.4,0.2,0.8,0.2,1.2c0,0.9-0.3,1.7-0.9,2.3
	c-0.6,0.6-1.3,0.9-2.3,0.9c-0.5,0-1-0.1-1.4-0.3c-0.4-0.2-0.7-0.4-1-0.7c-0.3-0.3-0.4-0.6-0.6-1C143.4,44.9,143.3,44.5,143.3,44z
	 M144.6,44c0,0.3,0,0.6,0.1,0.8c0.1,0.3,0.2,0.5,0.3,0.7c0.1,0.2,0.3,0.4,0.6,0.5s0.5,0.2,0.9,0.2c0.3,0,0.5,0,0.7-0.1
	c0.2-0.1,0.4-0.2,0.5-0.3c0.1-0.1,0.3-0.3,0.4-0.5c0.1-0.2,0.2-0.4,0.2-0.6c0-0.2,0.1-0.4,0.1-0.6c0-0.3,0-0.6-0.1-0.8
	c-0.1-0.3-0.2-0.5-0.3-0.7c-0.1-0.2-0.3-0.4-0.6-0.5c-0.2-0.1-0.5-0.2-0.9-0.2c-0.3,0-0.6,0.1-0.9,0.2c-0.3,0.1-0.5,0.3-0.6,0.5
	c-0.1,0.2-0.2,0.4-0.3,0.7C144.6,43.4,144.6,43.7,144.6,44z"/>
</svg>
