<svg width="39" height="90" viewBox="0 0 39 90" fill="none" xmlns="http://www.w3.org/2000/svg">
<path d="M0.0543759 89.9915C0.0414183 89.9604 0.0328546 89.9276 0.0289281 89.8941C-0.0431771 89.0467 -0.0431772 89.0467 0.800877 88.856C2.24298 88.5383 3.61722 88.0849 4.61821 86.9156C5.45231 85.8416 5.98912 84.5675 6.17483 83.221C6.56826 80.8996 6.7401 78.546 6.68805 76.1921C6.68805 71.6163 6.68805 67.0447 6.68805 62.4689C6.68805 53.5207 6.68805 44.5739 6.68805 35.6285C6.68805 28.1716 6.68805 20.7162 6.68805 13.2621V12.6139H15.4213V52.6988C15.6673 52.631 15.8454 52.5844 16.0363 52.525C20.6043 50.9744 23.8364 47.8857 26.114 43.7251C27.7816 40.6394 28.8454 37.2646 29.2485 33.7812C29.541 31.448 29.6939 29.0994 29.7066 26.748C29.7066 22.5451 28.9728 18.4735 27.0429 14.6857C24.7355 10.1608 21.1048 7.01701 16.5749 4.86469C13.1601 3.29673 9.53302 2.23891 5.81006 1.72518C4.20678 1.47945 2.59078 1.3015 0.949328 1.10237C1.18261 0.57276 1.32258 -0.0246369 2.08605 0.000784166H4.02016C4.11733 0.0286669 4.21663 0.0485057 4.31706 0.0600998C7.43346 0.126546 10.539 0.451072 13.6017 1.03034C18.1994 1.87771 22.619 3.28011 26.7036 5.60614C30.6863 7.87286 33.9862 10.8471 36.1748 14.9272C39.0081 20.1979 39.5129 25.8329 38.5585 31.6374C37.7254 36.7233 35.5083 41.4825 32.1496 45.3944C27.8615 50.4786 22.5512 53.8681 15.9302 55.0714C15.5061 55.1476 15.4213 55.2875 15.4255 55.6773C15.4255 58.4058 15.4255 61.1343 15.4255 63.8629C15.4255 69.0615 15.4594 74.2643 15.5061 79.4629C15.465 81.4294 15.7006 83.3919 16.2059 85.2929C16.3913 86.0359 16.7649 86.7189 17.2908 87.2761C17.8167 87.8333 18.4772 88.2461 19.2089 88.4747C19.913 88.7078 20.6383 88.8645 21.4187 89.0721V90L0.0543759 89.9915Z" fill="white"/>
</svg>
