<svg width="23" height="23" viewBox="0 0 23 23" fill="none" xmlns="http://www.w3.org/2000/svg">
<path d="M11.028 23H11.9858C17.1847 23 19.7846 23 21.3992 21.3854C23.0138 19.7708 23 17.1718 23 11.9858V11.0142C23 5.82912 23 3.22921 21.3992 1.61461C19.7984 4.66108e-06 17.1847 0 11.9858 0H11.028C5.8282 0 3.2292 4.66108e-06 1.6146 1.61461C-9.59635e-07 3.22921 0 5.82728 0 11.0142V11.9858C0 17.1718 -9.59635e-07 19.7708 1.6146 21.3854C3.2292 23 5.8282 23 11.028 23Z" fill="#0077FF"/>
<path d="M12.342 16.5828C7.15591 16.5828 4.00859 12.9846 3.88623 7.00555H6.51283C6.59471 11.3976 8.59295 13.2616 10.1248 13.6415V7.00555H12.6428V10.795C14.1203 10.6313 15.6659 8.90719 16.1866 7.00555H18.6623C18.2658 9.34511 16.5831 11.0692 15.3927 11.7804C16.5831 12.3554 18.4986 13.8605 19.2373 16.5828H16.5151C15.9401 14.763 14.5306 13.3536 12.6428 13.1622V16.5828H12.342Z" fill="white"/>
</svg>
