<svg width="25" height="25" viewBox="0 0 25 25" fill="none" xmlns="http://www.w3.org/2000/svg">
<path d="M0 12.5C0 5.59625 5.595 0 12.5 0C19.4025 0 25 5.59625 25 12.5C25 19.4037 19.4025 25 12.5 25C5.595 25 0 19.4037 0 12.5Z" fill="#FC3F1D"/>
<path d="M14.1 7.08245H12.945C10.8275 7.08245 9.71375 8.15495 9.71375 9.7362C9.71375 11.5237 10.4838 12.3612 12.065 13.435L13.3713 14.3149L9.6175 19.9237H6.8125L10.1813 14.9062C8.24375 13.5175 7.15625 12.1687 7.15625 9.88745C7.15625 7.02745 9.15 5.07495 12.9313 5.07495H16.685V19.91H14.1V7.08245Z" fill="white"/>
</svg>
